<svg id="Layer_1" data-name="Layer 1" xmlns="http://www.w3.org/2000/svg" xmlns:xlink="http://www.w3.org/1999/xlink" viewBox="0 0 432 216"><defs><style>.cls-1{fill:url(#linear-gradient);}.cls-2{fill:#404041;}.cls-3{fill:none;stroke:#e39b44;stroke-miterlimit:10;stroke-width:6px;}</style><linearGradient id="linear-gradient" x1="139.23" y1="114.13" x2="147.75" y2="114.13" gradientTransform="matrix(-1, 0, 0, 1, 183.06, -0.75)" gradientUnits="userSpaceOnUse"><stop offset="0" stop-color="#404041"/><stop offset="0.54" stop-color="#424243"/><stop offset="0.78" stop-color="#49494a"/><stop offset="0.96" stop-color="#545557"/><stop offset="1" stop-color="#58595b"/></linearGradient></defs><path class="cls-1" d="M44.44,130.3l-5.14,7-5.13-6.91m0,0V98.74h-14V89.5H58.44v9.24h-14V130.3"/><path class="cls-2" d="M98.15,132.65q-5.3,4.6-14.66,4.61t-14.68-4.58q-5.2-4.58-5.2-14.13v-29H73.88v29.05a22,22,0,0,0,.32,3.73,7.29,7.29,0,0,0,4.29,5.52,11.78,11.78,0,0,0,5,.89q5.51,0,7.59-2.46t2.1-7.68v-29h10.27v29.05Q103.45,128,98.15,132.65Z"/><path class="cls-2" d="M137.46,89.5a14.94,14.94,0,0,1,5.66,1,12.9,12.9,0,0,1,4.32,2.78,12,12,0,0,1,2.75,4.08,13.18,13.18,0,0,1,.95,5,14,14,0,0,1-1.74,7.13,10.86,10.86,0,0,1-5.66,4.58v.13a8,8,0,0,1,3.15,1.6,9,9,0,0,1,2,2.55,11.64,11.64,0,0,1,1.15,3.24,28.79,28.79,0,0,1,.49,3.53c0,.75.09,1.62.13,2.62s.12,2,.23,3.08a20.63,20.63,0,0,0,.52,3,6.83,6.83,0,0,0,1.08,2.39H142.24a18,18,0,0,1-1.05-5.3c-.13-2-.32-4-.59-5.89a9.22,9.22,0,0,0-2.22-5.36c-1.13-1.13-3-1.7-5.56-1.7H122.55v18.25H112.28V89.5Zm-3.66,21.13a7.75,7.75,0,0,0,5.3-1.57q1.77-1.57,1.77-5.1T139.1,99a7.91,7.91,0,0,0-5.3-1.54H122.55v13.15Z"/><path class="cls-2" d="M169.72,89.5l19.49,31.34h.13V89.5H199v46.71H188.69l-19.43-31.27h-.13v31.27h-9.62V89.5Z"/><path class="cls-2" d="M234,124.7a7.49,7.49,0,0,0,2.26,2.65,10,10,0,0,0,3.3,1.5,15.56,15.56,0,0,0,3.93.49,19.41,19.41,0,0,0,2.94-.23,10.08,10.08,0,0,0,3-.88,6.65,6.65,0,0,0,2.29-1.8,4.5,4.5,0,0,0,.91-2.91,4.1,4.1,0,0,0-1.21-3.08,9.79,9.79,0,0,0-3.17-2,31.77,31.77,0,0,0-4.45-1.37q-2.49-.58-5-1.31a46.44,46.44,0,0,1-5.1-1.6,17.26,17.26,0,0,1-4.45-2.46A11.47,11.47,0,0,1,226,108a11.35,11.35,0,0,1-1.21-5.46,12.2,12.2,0,0,1,1.54-6.25,13.8,13.8,0,0,1,4-4.41A17.53,17.53,0,0,1,236,89.24a23.75,23.75,0,0,1,6.28-.85,29.48,29.48,0,0,1,7,.82,17.45,17.45,0,0,1,6,2.65,13.44,13.44,0,0,1,4.16,4.67,14.43,14.43,0,0,1,1.54,6.91H251a8.3,8.3,0,0,0-.88-3.47,5.72,5.72,0,0,0-2-2.16,8.51,8.51,0,0,0-2.84-1.11,17.41,17.41,0,0,0-3.5-.33,12.39,12.39,0,0,0-2.49.26,6.73,6.73,0,0,0-2.26.92,5.61,5.61,0,0,0-1.66,1.63,4.4,4.4,0,0,0-.66,2.49,4.14,4.14,0,0,0,.53,2.22,4.57,4.57,0,0,0,2.06,1.57,26.11,26.11,0,0,0,4.25,1.44c1.81.48,4.17,1.09,7.1,1.83.87.18,2.08.5,3.63,1a17.72,17.72,0,0,1,4.61,2.19,14.1,14.1,0,0,1,4,4,11.47,11.47,0,0,1,1.67,6.44,14.23,14.23,0,0,1-1.25,5.95,12.94,12.94,0,0,1-3.69,4.75,18,18,0,0,1-6.09,3.11,28.78,28.78,0,0,1-8.4,1.11,29.57,29.57,0,0,1-7.49-.95,19,19,0,0,1-6.42-3,14.65,14.65,0,0,1-4.41-5.17,15.34,15.34,0,0,1-1.57-7.45h9.94A8.65,8.65,0,0,0,234,124.7Z"/><path class="cls-2" d="M303,132.65q-5.3,4.6-14.65,4.61t-14.69-4.58q-5.19-4.58-5.2-14.13v-29H278.7v29.05a21,21,0,0,0,.33,3.73,7.25,7.25,0,0,0,4.28,5.52,11.86,11.86,0,0,0,5,.89q5.49,0,7.59-2.46t2.09-7.68v-29h10.27v29.05Q308.27,128,303,132.65Z"/><path class="cls-2" d="M327.37,89.5v46.71H317.1V89.5Z"/><path class="cls-2" d="M332.74,98.14V89.5H371v8.64H357v38.07H346.74V98.14Z"/><path class="cls-2" d="M411.31,89.5v8.64H386.64v10h22.64v8H386.64v11.45h25.19v8.63H376.37V89.5Z"/><line class="cls-3" x1="20.17" y1="78.74" x2="411.83" y2="78.74"/></svg>