<?xml version="1.0" standalone="no"?>
<!DOCTYPE svg PUBLIC "-//W3C//DTD SVG 20010904//EN"
 "http://www.w3.org/TR/2001/REC-SVG-20010904/DTD/svg10.dtd">
<svg version="1.0" xmlns="http://www.w3.org/2000/svg"
 width="180.000000pt" height="180.000000pt" viewBox="0 0 180.000000 180.000000"
 preserveAspectRatio="xMidYMid meet">
<metadata>
Created by potrace 1.11, written by Peter Selinger 2001-2013
</metadata>
<g transform="translate(0.000000,180.000000) scale(0.100000,-0.100000)"
fill="#000000" stroke="none">
<path d="M805 1794 c-219 -32 -375 -106 -523 -248 -185 -178 -276 -390 -276
-646 0 -244 79 -442 248 -618 179 -187 389 -276 646 -276 225 0 416 69 581
211 206 176 313 410 313 683 0 257 -89 467 -276 646 -125 120 -257 192 -419
228 -73 17 -238 28 -294 20z m205 -374 c207 -32 329 -110 379 -246 32 -84 45
-225 32 -329 -33 -248 -156 -386 -397 -447 -81 -21 -112 -23 -356 -23 -146 0
-268 2 -271 5 -3 3 -6 38 -8 79 l-4 74 53 15 52 15 0 322 0 323 -55 31 -55 31
0 58 c0 31 4 62 8 68 15 24 502 42 622 24z"/>
<path d="M813 1232 l-33 -3 0 -314 0 -314 56 -7 c60 -7 165 1 225 16 32 9 38
16 48 53 18 67 28 225 20 304 -13 119 -55 195 -131 234 -40 21 -133 36 -185
31z"/>
</g>
</svg>
