<svg xmlns="http://www.w3.org/2000/svg" xmlns:xlink="http://www.w3.org/1999/xlink" width="1039" height="2589" viewBox="0 0 1039 2589">
  <defs>
    <clipPath id="clip-path">
      <rect width="70" height="2460" fill="none"/>
    </clipPath>
  </defs>
  <g id="Rectangle_56" data-name="Rectangle 56" fill="#2b2b2b" stroke="#707070" stroke-width="1">
    <rect width="1039" height="2589" rx="60" stroke="none"/>
    <rect x="0.5" y="0.5" width="1038" height="2588" rx="59.5" fill="none"/>
  </g>
  <path id="Path_1266" data-name="Path 1266" d="M863.7,2500h0Z" transform="translate(75 5)" fill="#2b2b2b"/>
  <g id="Repeat_Grid_7" data-name="Repeat Grid 7" transform="translate(938 65)" clip-path="url(#clip-path)">
    <g transform="translate(-8112 -3275)">
      <rect id="Rectangle_55" data-name="Rectangle 55" width="35" height="12" rx="6" transform="translate(8147 3275)" fill="#fffff8"/>
    </g>
    <g transform="translate(-8112 -3238)">
      <rect id="Rectangle_55-2" data-name="Rectangle 55" width="35" height="12" rx="6" transform="translate(8147 3275)" fill="#fffff8"/>
    </g>
    <g transform="translate(-8112 -3201)">
      <rect id="Rectangle_55-3" data-name="Rectangle 55" width="35" height="12" rx="6" transform="translate(8147 3275)" fill="#fffff8"/>
    </g>
    <g transform="translate(-8112 -3164)">
      <rect id="Rectangle_55-4" data-name="Rectangle 55" width="35" height="12" rx="6" transform="translate(8147 3275)" fill="#fffff8"/>
    </g>
    <g transform="translate(-8112 -3127)">
      <rect id="Rectangle_55-5" data-name="Rectangle 55" width="35" height="12" rx="6" transform="translate(8147 3275)" fill="#fffff8"/>
    </g>
    <g transform="translate(-8112 -3090)">
      <rect id="Rectangle_55-6" data-name="Rectangle 55" width="35" height="12" rx="6" transform="translate(8147 3275)" fill="#fffff8"/>
    </g>
    <g transform="translate(-8112 -3053)">
      <rect id="Rectangle_55-7" data-name="Rectangle 55" width="35" height="12" rx="6" transform="translate(8147 3275)" fill="#fffff8"/>
    </g>
    <g transform="translate(-8112 -3016)">
      <rect id="Rectangle_55-8" data-name="Rectangle 55" width="35" height="12" rx="6" transform="translate(8147 3275)" fill="#fffff8"/>
    </g>
    <g transform="translate(-8112 -2979)">
      <rect id="Rectangle_55-9" data-name="Rectangle 55" width="35" height="12" rx="6" transform="translate(8147 3275)" fill="#fffff8"/>
    </g>
    <g transform="translate(-8112 -2942)">
      <rect id="Rectangle_55-10" data-name="Rectangle 55" width="35" height="12" rx="6" transform="translate(8147 3275)" fill="#fffff8"/>
    </g>
    <g transform="translate(-8112 -2905)">
      <rect id="Rectangle_55-11" data-name="Rectangle 55" width="35" height="12" rx="6" transform="translate(8147 3275)" fill="#fffff8"/>
    </g>
    <g transform="translate(-8112 -2868)">
      <rect id="Rectangle_55-12" data-name="Rectangle 55" width="35" height="12" rx="6" transform="translate(8147 3275)" fill="#fffff8"/>
    </g>
    <g transform="translate(-8112 -2831)">
      <rect id="Rectangle_55-13" data-name="Rectangle 55" width="35" height="12" rx="6" transform="translate(8147 3275)" fill="#fffff8"/>
    </g>
    <g transform="translate(-8112 -2794)">
      <rect id="Rectangle_55-14" data-name="Rectangle 55" width="35" height="12" rx="6" transform="translate(8147 3275)" fill="#fffff8"/>
    </g>
    <g transform="translate(-8112 -2757)">
      <rect id="Rectangle_55-15" data-name="Rectangle 55" width="35" height="12" rx="6" transform="translate(8147 3275)" fill="#fffff8"/>
    </g>
    <g transform="translate(-8112 -2720)">
      <rect id="Rectangle_55-16" data-name="Rectangle 55" width="35" height="12" rx="6" transform="translate(8147 3275)" fill="#fffff8"/>
    </g>
    <g transform="translate(-8112 -2683)">
      <rect id="Rectangle_55-17" data-name="Rectangle 55" width="35" height="12" rx="6" transform="translate(8147 3275)" fill="#fffff8"/>
    </g>
    <g transform="translate(-8112 -2646)">
      <rect id="Rectangle_55-18" data-name="Rectangle 55" width="35" height="12" rx="6" transform="translate(8147 3275)" fill="#fffff8"/>
    </g>
    <g transform="translate(-8112 -2609)">
      <rect id="Rectangle_55-19" data-name="Rectangle 55" width="35" height="12" rx="6" transform="translate(8147 3275)" fill="#fffff8"/>
    </g>
    <g transform="translate(-8112 -2572)">
      <rect id="Rectangle_55-20" data-name="Rectangle 55" width="35" height="12" rx="6" transform="translate(8147 3275)" fill="#fffff8"/>
    </g>
    <g transform="translate(-8112 -2535)">
      <rect id="Rectangle_55-21" data-name="Rectangle 55" width="35" height="12" rx="6" transform="translate(8147 3275)" fill="#fffff8"/>
    </g>
    <g transform="translate(-8112 -2498)">
      <rect id="Rectangle_55-22" data-name="Rectangle 55" width="35" height="12" rx="6" transform="translate(8147 3275)" fill="#fffff8"/>
    </g>
    <g transform="translate(-8112 -2461)">
      <rect id="Rectangle_55-23" data-name="Rectangle 55" width="35" height="12" rx="6" transform="translate(8147 3275)" fill="#fffff8"/>
    </g>
    <g transform="translate(-8112 -2424)">
      <rect id="Rectangle_55-24" data-name="Rectangle 55" width="35" height="12" rx="6" transform="translate(8147 3275)" fill="#fffff8"/>
    </g>
    <g transform="translate(-8112 -2387)">
      <rect id="Rectangle_55-25" data-name="Rectangle 55" width="35" height="12" rx="6" transform="translate(8147 3275)" fill="#fffff8"/>
    </g>
    <g transform="translate(-8112 -2350)">
      <rect id="Rectangle_55-26" data-name="Rectangle 55" width="35" height="12" rx="6" transform="translate(8147 3275)" fill="#fffff8"/>
    </g>
    <g transform="translate(-8112 -2313)">
      <rect id="Rectangle_55-27" data-name="Rectangle 55" width="35" height="12" rx="6" transform="translate(8147 3275)" fill="#fffff8"/>
    </g>
    <g transform="translate(-8112 -2276)">
      <rect id="Rectangle_55-28" data-name="Rectangle 55" width="35" height="12" rx="6" transform="translate(8147 3275)" fill="#fffff8"/>
    </g>
    <g transform="translate(-8112 -2239)">
      <rect id="Rectangle_55-29" data-name="Rectangle 55" width="35" height="12" rx="6" transform="translate(8147 3275)" fill="#fffff8"/>
    </g>
    <g transform="translate(-8112 -2202)">
      <rect id="Rectangle_55-30" data-name="Rectangle 55" width="35" height="12" rx="6" transform="translate(8147 3275)" fill="#fffff8"/>
    </g>
    <g transform="translate(-8112 -2165)">
      <rect id="Rectangle_55-31" data-name="Rectangle 55" width="35" height="12" rx="6" transform="translate(8147 3275)" fill="#fffff8"/>
    </g>
    <g transform="translate(-8112 -2128)">
      <rect id="Rectangle_55-32" data-name="Rectangle 55" width="35" height="12" rx="6" transform="translate(8147 3275)" fill="#fffff8"/>
    </g>
    <g transform="translate(-8112 -2091)">
      <rect id="Rectangle_55-33" data-name="Rectangle 55" width="35" height="12" rx="6" transform="translate(8147 3275)" fill="#fffff8"/>
    </g>
    <g transform="translate(-8112 -2054)">
      <rect id="Rectangle_55-34" data-name="Rectangle 55" width="35" height="12" rx="6" transform="translate(8147 3275)" fill="#fffff8"/>
    </g>
    <g transform="translate(-8112 -2017)">
      <rect id="Rectangle_55-35" data-name="Rectangle 55" width="35" height="12" rx="6" transform="translate(8147 3275)" fill="#fffff8"/>
    </g>
    <g transform="translate(-8112 -1980)">
      <rect id="Rectangle_55-36" data-name="Rectangle 55" width="35" height="12" rx="6" transform="translate(8147 3275)" fill="#fffff8"/>
    </g>
    <g transform="translate(-8112 -1943)">
      <rect id="Rectangle_55-37" data-name="Rectangle 55" width="35" height="12" rx="6" transform="translate(8147 3275)" fill="#fffff8"/>
    </g>
    <g transform="translate(-8112 -1906)">
      <rect id="Rectangle_55-38" data-name="Rectangle 55" width="35" height="12" rx="6" transform="translate(8147 3275)" fill="#fffff8"/>
    </g>
    <g transform="translate(-8112 -1869)">
      <rect id="Rectangle_55-39" data-name="Rectangle 55" width="35" height="12" rx="6" transform="translate(8147 3275)" fill="#fffff8"/>
    </g>
    <g transform="translate(-8112 -1832)">
      <rect id="Rectangle_55-40" data-name="Rectangle 55" width="35" height="12" rx="6" transform="translate(8147 3275)" fill="#fffff8"/>
    </g>
    <g transform="translate(-8112 -1795)">
      <rect id="Rectangle_55-41" data-name="Rectangle 55" width="35" height="12" rx="6" transform="translate(8147 3275)" fill="#fffff8"/>
    </g>
    <g transform="translate(-8112 -1758)">
      <rect id="Rectangle_55-42" data-name="Rectangle 55" width="35" height="12" rx="6" transform="translate(8147 3275)" fill="#fffff8"/>
    </g>
    <g transform="translate(-8112 -1721)">
      <rect id="Rectangle_55-43" data-name="Rectangle 55" width="35" height="12" rx="6" transform="translate(8147 3275)" fill="#fffff8"/>
    </g>
    <g transform="translate(-8112 -1684)">
      <rect id="Rectangle_55-44" data-name="Rectangle 55" width="35" height="12" rx="6" transform="translate(8147 3275)" fill="#fffff8"/>
    </g>
    <g transform="translate(-8112 -1647)">
      <rect id="Rectangle_55-45" data-name="Rectangle 55" width="35" height="12" rx="6" transform="translate(8147 3275)" fill="#fffff8"/>
    </g>
    <g transform="translate(-8112 -1610)">
      <rect id="Rectangle_55-46" data-name="Rectangle 55" width="35" height="12" rx="6" transform="translate(8147 3275)" fill="#fffff8"/>
    </g>
    <g transform="translate(-8112 -1573)">
      <rect id="Rectangle_55-47" data-name="Rectangle 55" width="35" height="12" rx="6" transform="translate(8147 3275)" fill="#fffff8"/>
    </g>
    <g transform="translate(-8112 -1536)">
      <rect id="Rectangle_55-48" data-name="Rectangle 55" width="35" height="12" rx="6" transform="translate(8147 3275)" fill="#fffff8"/>
    </g>
    <g transform="translate(-8112 -1499)">
      <rect id="Rectangle_55-49" data-name="Rectangle 55" width="35" height="12" rx="6" transform="translate(8147 3275)" fill="#fffff8"/>
    </g>
    <g transform="translate(-8112 -1462)">
      <rect id="Rectangle_55-50" data-name="Rectangle 55" width="35" height="12" rx="6" transform="translate(8147 3275)" fill="#fffff8"/>
    </g>
    <g transform="translate(-8112 -1425)">
      <rect id="Rectangle_55-51" data-name="Rectangle 55" width="35" height="12" rx="6" transform="translate(8147 3275)" fill="#fffff8"/>
    </g>
    <g transform="translate(-8112 -1388)">
      <rect id="Rectangle_55-52" data-name="Rectangle 55" width="35" height="12" rx="6" transform="translate(8147 3275)" fill="#fffff8"/>
    </g>
    <g transform="translate(-8112 -1351)">
      <rect id="Rectangle_55-53" data-name="Rectangle 55" width="35" height="12" rx="6" transform="translate(8147 3275)" fill="#fffff8"/>
    </g>
    <g transform="translate(-8112 -1314)">
      <rect id="Rectangle_55-54" data-name="Rectangle 55" width="35" height="12" rx="6" transform="translate(8147 3275)" fill="#fffff8"/>
    </g>
    <g transform="translate(-8112 -1277)">
      <rect id="Rectangle_55-55" data-name="Rectangle 55" width="35" height="12" rx="6" transform="translate(8147 3275)" fill="#fffff8"/>
    </g>
    <g transform="translate(-8112 -1240)">
      <rect id="Rectangle_55-56" data-name="Rectangle 55" width="35" height="12" rx="6" transform="translate(8147 3275)" fill="#fffff8"/>
    </g>
    <g transform="translate(-8112 -1203)">
      <rect id="Rectangle_55-57" data-name="Rectangle 55" width="35" height="12" rx="6" transform="translate(8147 3275)" fill="#fffff8"/>
    </g>
    <g transform="translate(-8112 -1166)">
      <rect id="Rectangle_55-58" data-name="Rectangle 55" width="35" height="12" rx="6" transform="translate(8147 3275)" fill="#fffff8"/>
    </g>
    <g transform="translate(-8112 -1129)">
      <rect id="Rectangle_55-59" data-name="Rectangle 55" width="35" height="12" rx="6" transform="translate(8147 3275)" fill="#fffff8"/>
    </g>
    <g transform="translate(-8112 -1092)">
      <rect id="Rectangle_55-60" data-name="Rectangle 55" width="35" height="12" rx="6" transform="translate(8147 3275)" fill="#fffff8"/>
    </g>
    <g transform="translate(-8112 -1055)">
      <rect id="Rectangle_55-61" data-name="Rectangle 55" width="35" height="12" rx="6" transform="translate(8147 3275)" fill="#fffff8"/>
    </g>
    <g transform="translate(-8112 -1018)">
      <rect id="Rectangle_55-62" data-name="Rectangle 55" width="35" height="12" rx="6" transform="translate(8147 3275)" fill="#fffff8"/>
    </g>
    <g transform="translate(-8112 -981)">
      <rect id="Rectangle_55-63" data-name="Rectangle 55" width="35" height="12" rx="6" transform="translate(8147 3275)" fill="#fffff8"/>
    </g>
    <g transform="translate(-8112 -944)">
      <rect id="Rectangle_55-64" data-name="Rectangle 55" width="35" height="12" rx="6" transform="translate(8147 3275)" fill="#fffff8"/>
    </g>
    <g transform="translate(-8112 -907)">
      <rect id="Rectangle_55-65" data-name="Rectangle 55" width="35" height="12" rx="6" transform="translate(8147 3275)" fill="#fffff8"/>
    </g>
    <g transform="translate(-8112 -870)">
      <rect id="Rectangle_55-66" data-name="Rectangle 55" width="35" height="12" rx="6" transform="translate(8147 3275)" fill="#fffff8"/>
    </g>
    <g transform="translate(-8112 -833)">
      <rect id="Rectangle_55-67" data-name="Rectangle 55" width="35" height="12" rx="6" transform="translate(8147 3275)" fill="#fffff8"/>
    </g>
  </g>
  <g id="Repeat_Grid_8" data-name="Repeat Grid 8" transform="translate(5 65)" clip-path="url(#clip-path)">
    <g transform="translate(-8112 -3275)">
      <rect id="Rectangle_55-68" data-name="Rectangle 55" width="35" height="12" rx="6" transform="translate(8147 3275)" fill="#fffff8"/>
    </g>
    <g transform="translate(-8112 -3238)">
      <rect id="Rectangle_55-69" data-name="Rectangle 55" width="35" height="12" rx="6" transform="translate(8147 3275)" fill="#fffff8"/>
    </g>
    <g transform="translate(-8112 -3201)">
      <rect id="Rectangle_55-70" data-name="Rectangle 55" width="35" height="12" rx="6" transform="translate(8147 3275)" fill="#fffff8"/>
    </g>
    <g transform="translate(-8112 -3164)">
      <rect id="Rectangle_55-71" data-name="Rectangle 55" width="35" height="12" rx="6" transform="translate(8147 3275)" fill="#fffff8"/>
    </g>
    <g transform="translate(-8112 -3127)">
      <rect id="Rectangle_55-72" data-name="Rectangle 55" width="35" height="12" rx="6" transform="translate(8147 3275)" fill="#fffff8"/>
    </g>
    <g transform="translate(-8112 -3090)">
      <rect id="Rectangle_55-73" data-name="Rectangle 55" width="35" height="12" rx="6" transform="translate(8147 3275)" fill="#fffff8"/>
    </g>
    <g transform="translate(-8112 -3053)">
      <rect id="Rectangle_55-74" data-name="Rectangle 55" width="35" height="12" rx="6" transform="translate(8147 3275)" fill="#fffff8"/>
    </g>
    <g transform="translate(-8112 -3016)">
      <rect id="Rectangle_55-75" data-name="Rectangle 55" width="35" height="12" rx="6" transform="translate(8147 3275)" fill="#fffff8"/>
    </g>
    <g transform="translate(-8112 -2979)">
      <rect id="Rectangle_55-76" data-name="Rectangle 55" width="35" height="12" rx="6" transform="translate(8147 3275)" fill="#fffff8"/>
    </g>
    <g transform="translate(-8112 -2942)">
      <rect id="Rectangle_55-77" data-name="Rectangle 55" width="35" height="12" rx="6" transform="translate(8147 3275)" fill="#fffff8"/>
    </g>
    <g transform="translate(-8112 -2905)">
      <rect id="Rectangle_55-78" data-name="Rectangle 55" width="35" height="12" rx="6" transform="translate(8147 3275)" fill="#fffff8"/>
    </g>
    <g transform="translate(-8112 -2868)">
      <rect id="Rectangle_55-79" data-name="Rectangle 55" width="35" height="12" rx="6" transform="translate(8147 3275)" fill="#fffff8"/>
    </g>
    <g transform="translate(-8112 -2831)">
      <rect id="Rectangle_55-80" data-name="Rectangle 55" width="35" height="12" rx="6" transform="translate(8147 3275)" fill="#fffff8"/>
    </g>
    <g transform="translate(-8112 -2794)">
      <rect id="Rectangle_55-81" data-name="Rectangle 55" width="35" height="12" rx="6" transform="translate(8147 3275)" fill="#fffff8"/>
    </g>
    <g transform="translate(-8112 -2757)">
      <rect id="Rectangle_55-82" data-name="Rectangle 55" width="35" height="12" rx="6" transform="translate(8147 3275)" fill="#fffff8"/>
    </g>
    <g transform="translate(-8112 -2720)">
      <rect id="Rectangle_55-83" data-name="Rectangle 55" width="35" height="12" rx="6" transform="translate(8147 3275)" fill="#fffff8"/>
    </g>
    <g transform="translate(-8112 -2683)">
      <rect id="Rectangle_55-84" data-name="Rectangle 55" width="35" height="12" rx="6" transform="translate(8147 3275)" fill="#fffff8"/>
    </g>
    <g transform="translate(-8112 -2646)">
      <rect id="Rectangle_55-85" data-name="Rectangle 55" width="35" height="12" rx="6" transform="translate(8147 3275)" fill="#fffff8"/>
    </g>
    <g transform="translate(-8112 -2609)">
      <rect id="Rectangle_55-86" data-name="Rectangle 55" width="35" height="12" rx="6" transform="translate(8147 3275)" fill="#fffff8"/>
    </g>
    <g transform="translate(-8112 -2572)">
      <rect id="Rectangle_55-87" data-name="Rectangle 55" width="35" height="12" rx="6" transform="translate(8147 3275)" fill="#fffff8"/>
    </g>
    <g transform="translate(-8112 -2535)">
      <rect id="Rectangle_55-88" data-name="Rectangle 55" width="35" height="12" rx="6" transform="translate(8147 3275)" fill="#fffff8"/>
    </g>
    <g transform="translate(-8112 -2498)">
      <rect id="Rectangle_55-89" data-name="Rectangle 55" width="35" height="12" rx="6" transform="translate(8147 3275)" fill="#fffff8"/>
    </g>
    <g transform="translate(-8112 -2461)">
      <rect id="Rectangle_55-90" data-name="Rectangle 55" width="35" height="12" rx="6" transform="translate(8147 3275)" fill="#fffff8"/>
    </g>
    <g transform="translate(-8112 -2424)">
      <rect id="Rectangle_55-91" data-name="Rectangle 55" width="35" height="12" rx="6" transform="translate(8147 3275)" fill="#fffff8"/>
    </g>
    <g transform="translate(-8112 -2387)">
      <rect id="Rectangle_55-92" data-name="Rectangle 55" width="35" height="12" rx="6" transform="translate(8147 3275)" fill="#fffff8"/>
    </g>
    <g transform="translate(-8112 -2350)">
      <rect id="Rectangle_55-93" data-name="Rectangle 55" width="35" height="12" rx="6" transform="translate(8147 3275)" fill="#fffff8"/>
    </g>
    <g transform="translate(-8112 -2313)">
      <rect id="Rectangle_55-94" data-name="Rectangle 55" width="35" height="12" rx="6" transform="translate(8147 3275)" fill="#fffff8"/>
    </g>
    <g transform="translate(-8112 -2276)">
      <rect id="Rectangle_55-95" data-name="Rectangle 55" width="35" height="12" rx="6" transform="translate(8147 3275)" fill="#fffff8"/>
    </g>
    <g transform="translate(-8112 -2239)">
      <rect id="Rectangle_55-96" data-name="Rectangle 55" width="35" height="12" rx="6" transform="translate(8147 3275)" fill="#fffff8"/>
    </g>
    <g transform="translate(-8112 -2202)">
      <rect id="Rectangle_55-97" data-name="Rectangle 55" width="35" height="12" rx="6" transform="translate(8147 3275)" fill="#fffff8"/>
    </g>
    <g transform="translate(-8112 -2165)">
      <rect id="Rectangle_55-98" data-name="Rectangle 55" width="35" height="12" rx="6" transform="translate(8147 3275)" fill="#fffff8"/>
    </g>
    <g transform="translate(-8112 -2128)">
      <rect id="Rectangle_55-99" data-name="Rectangle 55" width="35" height="12" rx="6" transform="translate(8147 3275)" fill="#fffff8"/>
    </g>
    <g transform="translate(-8112 -2091)">
      <rect id="Rectangle_55-100" data-name="Rectangle 55" width="35" height="12" rx="6" transform="translate(8147 3275)" fill="#fffff8"/>
    </g>
    <g transform="translate(-8112 -2054)">
      <rect id="Rectangle_55-101" data-name="Rectangle 55" width="35" height="12" rx="6" transform="translate(8147 3275)" fill="#fffff8"/>
    </g>
    <g transform="translate(-8112 -2017)">
      <rect id="Rectangle_55-102" data-name="Rectangle 55" width="35" height="12" rx="6" transform="translate(8147 3275)" fill="#fffff8"/>
    </g>
    <g transform="translate(-8112 -1980)">
      <rect id="Rectangle_55-103" data-name="Rectangle 55" width="35" height="12" rx="6" transform="translate(8147 3275)" fill="#fffff8"/>
    </g>
    <g transform="translate(-8112 -1943)">
      <rect id="Rectangle_55-104" data-name="Rectangle 55" width="35" height="12" rx="6" transform="translate(8147 3275)" fill="#fffff8"/>
    </g>
    <g transform="translate(-8112 -1906)">
      <rect id="Rectangle_55-105" data-name="Rectangle 55" width="35" height="12" rx="6" transform="translate(8147 3275)" fill="#fffff8"/>
    </g>
    <g transform="translate(-8112 -1869)">
      <rect id="Rectangle_55-106" data-name="Rectangle 55" width="35" height="12" rx="6" transform="translate(8147 3275)" fill="#fffff8"/>
    </g>
    <g transform="translate(-8112 -1832)">
      <rect id="Rectangle_55-107" data-name="Rectangle 55" width="35" height="12" rx="6" transform="translate(8147 3275)" fill="#fffff8"/>
    </g>
    <g transform="translate(-8112 -1795)">
      <rect id="Rectangle_55-108" data-name="Rectangle 55" width="35" height="12" rx="6" transform="translate(8147 3275)" fill="#fffff8"/>
    </g>
    <g transform="translate(-8112 -1758)">
      <rect id="Rectangle_55-109" data-name="Rectangle 55" width="35" height="12" rx="6" transform="translate(8147 3275)" fill="#fffff8"/>
    </g>
    <g transform="translate(-8112 -1721)">
      <rect id="Rectangle_55-110" data-name="Rectangle 55" width="35" height="12" rx="6" transform="translate(8147 3275)" fill="#fffff8"/>
    </g>
    <g transform="translate(-8112 -1684)">
      <rect id="Rectangle_55-111" data-name="Rectangle 55" width="35" height="12" rx="6" transform="translate(8147 3275)" fill="#fffff8"/>
    </g>
    <g transform="translate(-8112 -1647)">
      <rect id="Rectangle_55-112" data-name="Rectangle 55" width="35" height="12" rx="6" transform="translate(8147 3275)" fill="#fffff8"/>
    </g>
    <g transform="translate(-8112 -1610)">
      <rect id="Rectangle_55-113" data-name="Rectangle 55" width="35" height="12" rx="6" transform="translate(8147 3275)" fill="#fffff8"/>
    </g>
    <g transform="translate(-8112 -1573)">
      <rect id="Rectangle_55-114" data-name="Rectangle 55" width="35" height="12" rx="6" transform="translate(8147 3275)" fill="#fffff8"/>
    </g>
    <g transform="translate(-8112 -1536)">
      <rect id="Rectangle_55-115" data-name="Rectangle 55" width="35" height="12" rx="6" transform="translate(8147 3275)" fill="#fffff8"/>
    </g>
    <g transform="translate(-8112 -1499)">
      <rect id="Rectangle_55-116" data-name="Rectangle 55" width="35" height="12" rx="6" transform="translate(8147 3275)" fill="#fffff8"/>
    </g>
    <g transform="translate(-8112 -1462)">
      <rect id="Rectangle_55-117" data-name="Rectangle 55" width="35" height="12" rx="6" transform="translate(8147 3275)" fill="#fffff8"/>
    </g>
    <g transform="translate(-8112 -1425)">
      <rect id="Rectangle_55-118" data-name="Rectangle 55" width="35" height="12" rx="6" transform="translate(8147 3275)" fill="#fffff8"/>
    </g>
    <g transform="translate(-8112 -1388)">
      <rect id="Rectangle_55-119" data-name="Rectangle 55" width="35" height="12" rx="6" transform="translate(8147 3275)" fill="#fffff8"/>
    </g>
    <g transform="translate(-8112 -1351)">
      <rect id="Rectangle_55-120" data-name="Rectangle 55" width="35" height="12" rx="6" transform="translate(8147 3275)" fill="#fffff8"/>
    </g>
    <g transform="translate(-8112 -1314)">
      <rect id="Rectangle_55-121" data-name="Rectangle 55" width="35" height="12" rx="6" transform="translate(8147 3275)" fill="#fffff8"/>
    </g>
    <g transform="translate(-8112 -1277)">
      <rect id="Rectangle_55-122" data-name="Rectangle 55" width="35" height="12" rx="6" transform="translate(8147 3275)" fill="#fffff8"/>
    </g>
    <g transform="translate(-8112 -1240)">
      <rect id="Rectangle_55-123" data-name="Rectangle 55" width="35" height="12" rx="6" transform="translate(8147 3275)" fill="#fffff8"/>
    </g>
    <g transform="translate(-8112 -1203)">
      <rect id="Rectangle_55-124" data-name="Rectangle 55" width="35" height="12" rx="6" transform="translate(8147 3275)" fill="#fffff8"/>
    </g>
    <g transform="translate(-8112 -1166)">
      <rect id="Rectangle_55-125" data-name="Rectangle 55" width="35" height="12" rx="6" transform="translate(8147 3275)" fill="#fffff8"/>
    </g>
    <g transform="translate(-8112 -1129)">
      <rect id="Rectangle_55-126" data-name="Rectangle 55" width="35" height="12" rx="6" transform="translate(8147 3275)" fill="#fffff8"/>
    </g>
    <g transform="translate(-8112 -1092)">
      <rect id="Rectangle_55-127" data-name="Rectangle 55" width="35" height="12" rx="6" transform="translate(8147 3275)" fill="#fffff8"/>
    </g>
    <g transform="translate(-8112 -1055)">
      <rect id="Rectangle_55-128" data-name="Rectangle 55" width="35" height="12" rx="6" transform="translate(8147 3275)" fill="#fffff8"/>
    </g>
    <g transform="translate(-8112 -1018)">
      <rect id="Rectangle_55-129" data-name="Rectangle 55" width="35" height="12" rx="6" transform="translate(8147 3275)" fill="#fffff8"/>
    </g>
    <g transform="translate(-8112 -981)">
      <rect id="Rectangle_55-130" data-name="Rectangle 55" width="35" height="12" rx="6" transform="translate(8147 3275)" fill="#fffff8"/>
    </g>
    <g transform="translate(-8112 -944)">
      <rect id="Rectangle_55-131" data-name="Rectangle 55" width="35" height="12" rx="6" transform="translate(8147 3275)" fill="#fffff8"/>
    </g>
    <g transform="translate(-8112 -907)">
      <rect id="Rectangle_55-132" data-name="Rectangle 55" width="35" height="12" rx="6" transform="translate(8147 3275)" fill="#fffff8"/>
    </g>
    <g transform="translate(-8112 -870)">
      <rect id="Rectangle_55-133" data-name="Rectangle 55" width="35" height="12" rx="6" transform="translate(8147 3275)" fill="#fffff8"/>
    </g>
    <g transform="translate(-8112 -833)">
      <rect id="Rectangle_55-134" data-name="Rectangle 55" width="35" height="12" rx="6" transform="translate(8147 3275)" fill="#fffff8"/>
    </g>
  </g>
</svg>
