<svg xmlns="http://www.w3.org/2000/svg" width="898.896" height="250.072" viewBox="0 0 898.896 250.072">
  <g id="Group_225" data-name="Group 225" transform="translate(-857.886 -488.678)">
    <g id="Group_179" data-name="Group 179" transform="translate(866.386 497.178)">
      <g id="Group_175" data-name="Group 175">
        <path id="Path_906" data-name="Path 906" d="M908.1,524.147c1.708,5.693,1.041,14.443.275,26.279-.671,10.8-.7,20.4-1.219,28.285-.5,7.911-1.447,13.587-3.883,17.381-2.384,3.786-6.151,5.377-11.078,4.991-3.97-.323-8.349-2.58-12.249-6.847a239.141,239.141,0,0,0,6.387,29.024c.9,2.836-1.581,4.223-7.495,4.242h-4.1a12.121,12.121,0,0,1-6.282-1.306,3.742,3.742,0,0,1-2.07-3.235c2.472-25.776,1.106-51.485,2.825-78.178.245-3.894.473-7.431.636-10.606q.1-2.6.231-5.192c0-.685.041-1.719.136-3.1a5.337,5.337,0,0,1,2.8-4.147,16.147,16.147,0,0,1,7.225-2.24c1.958-.185,2.126,2.67.956,8.769A25.866,25.866,0,0,1,888.214,520a16.463,16.463,0,0,1,8.66-3.544C902.768,516.029,906.483,518.445,908.1,524.147Zm-17.333,51.625c1.157-5.263,1.144-13.215,1.547-23.638.622-11.531-.766-16.953-5.931-16.623-2.574.166-5.424,3.514-7.745,9.946a172.232,172.232,0,0,0-.472,33.75c1.762,2.474,3.747,3.8,5.806,3.967C887.426,583.443,889.671,581.056,890.768,575.772Z" transform="translate(-866.386 -485.97)"/>
        <path id="Path_907" data-name="Path 907" d="M914.832,596.477c-7.938-6.336-13.555-15.486-14.926-27.824-1.679-16.053,3.205-29.363,11.784-39.258,8.707-9.916,21.126-14.682,35.6-15.236,10.8-.358,17.753,2.233,21.634,8.58,3.948,6.325,4.615,16.241,3.968,29.858-.788,19.26-1.277,33.559-5.557,42.16-4.15,8.685-11.67,12-24.356,11.573C932.5,605.9,922.836,602.809,914.832,596.477Zm31.173-16.495c1.615-5.521,1.6-14.242,2.009-25.983.262-6.779-.074-11.931-1.641-15.461-1.547-3.533-4.237-5.185-8.275-5.089-10.3.236-19.984,11.414-18.237,34.274.636,6.412,2.749,11.306,5.747,14.8a14.284,14.284,0,0,0,10.568,5.383C941.372,588.054,944.449,585.53,946.005,579.982Z" transform="translate(-847.042 -487.301)"/>
        <path id="Path_908" data-name="Path 908" d="M963.839,606.473c-2.156-1.035-3.517-2.369-4.017-4.038-5.407-16.855-5.731-38.529-1.409-58.721,1.309-6.25,2.65-11.395,3.685-15.488.446-1.754.817-3.273,1.1-4.576a27.371,27.371,0,0,1,.772-2.938c.829-2.1,2.89-3.549,6.1-4.407s8.066-1.342,14.66-1.461c4.074-.039,5.041,3.083,3.783,10.363a49.706,49.706,0,0,1,11.428-9.1,25.735,25.735,0,0,1,12.631-3.4c5.568-.052,7.67,2.2,6.6,7.343a37.1,37.1,0,0,1-4.481,10.377c-2.385,4.145-4.19,6.309-5.571,6.312a8.53,8.53,0,0,1-2.71-.82,11.947,11.947,0,0,0-4.736-.8,18.383,18.383,0,0,0-8.835,2.585,28.817,28.817,0,0,0-8.308,7.132c-3.723,20.2-3.672,41.807.662,58.425.98,3.545-1.823,5.082-8.566,4.956l-4.7-.1A19.72,19.72,0,0,1,963.839,606.473Z" transform="translate(-814.484 -488.128)"/>
        <path id="Path_909" data-name="Path 909" d="M1010.029,611.419c-4.967-3.134-8.345-8.245-9.421-16.048a44.063,44.063,0,0,1-.249-5.111,256.818,256.818,0,0,1,5.063-50.325l-4.365.027c-3.408.03-4.9-2.1-4.3-6.17a16.346,16.346,0,0,1,.63-2.84q.43-1.5.882-2.957a14.76,14.76,0,0,1,3.417-6.431,6.887,6.887,0,0,1,4.859-1.877l4.535-.043a102.688,102.688,0,0,1,6.861-12.9,8.027,8.027,0,0,1,4.335-3.246,22.819,22.819,0,0,1,7.108-.969q1.828-.012,3.663-.021c6.3-.009,8.962,1.246,8.018,4.452-1.16,3.647-2.263,7.862-3.294,12.495q4.228-.019,8.466-.035c1.721-.006,2.916.408,3.6,1.261s.965,2.254.855,4.272a16.65,16.65,0,0,1-.329,2.729q-.263,1.467-.522,2.971a16.6,16.6,0,0,1-2.4,6.882,5.533,5.533,0,0,1-4.731,2.241q-4.456.009-8.9.024a445.309,445.309,0,0,0-5.2,50.23c-.2,4.715,1.986,6.949,6.426,6.976a16.366,16.366,0,0,0,4.641-.522,11.822,11.822,0,0,1,2.17-.533,1.47,1.47,0,0,1,1.269.454,3.625,3.625,0,0,1,.381,1.7,52.777,52.777,0,0,1-.586,10.046c-.37,2.806-2.078,4.771-5.09,6.045a24.579,24.579,0,0,1-9.842,1.847C1020.961,615.987,1015.023,614.545,1010.029,611.419Z" transform="translate(-790.481 -494.069)"/>
        <path id="Path_910" data-name="Path 910" d="M1040.969,617.087c-1.782-.9-2.707-2.018-2.748-3.383,1.812-19.763,4.611-47.334,7.162-70.848q-1.944,0-3.889,0c-3.5.011-5.225-2.148-5.138-6.251a16.609,16.609,0,0,1,.252-2.859q.223-1.5.449-2.972c.453-3.106,1.23-5.2,2.313-6.442a5.732,5.732,0,0,1,4.57-1.841h3.88c.405-3.949.788-7.593,1.138-10.834.708-6.664,3.329-10.114,7.351-12.077,4.052-1.925,9.139-2.363,16.054-2.4,9.3.041,14.918.532,16.593,2.732.554.78.695,1.98.234,3.921-.473,1.961-1.486,3.148-2.832,3.123a12.769,12.769,0,0,1-2.276-.293,18.491,18.491,0,0,0-3.443-.294c-2.127-.01-3.607.356-4.489,1.152s-1.26,2.062-1.149,3.951c.081,3.308.055,7.037-.062,11.088q4.231.019,8.452.043a5.29,5.29,0,0,1,3.854,1.295,7.21,7.21,0,0,1,1.687,4.277,14.849,14.849,0,0,1,.138,2.721q-.022,1.465-.064,2.963c-.073,3.061-.59,5.385-1.51,6.854a4.869,4.869,0,0,1-4.476,2.211q-4.44-.017-8.9-.027c-1.488,23.413-4.755,50.87-8.593,70.633-.633,3.351-4.563,4.87-11.781,4.892l-5.065,0A17.572,17.572,0,0,1,1040.969,617.087Z" transform="translate(-767.327 -497.178)"/>
        <path id="Path_911" data-name="Path 911" d="M1084.957,600.819c-5.74-6.271-8.21-16.111-7.666-30.054.641-18.169,3.873-33.288,10.233-43.606,6.342-10.39,17.185-14.491,34.051-14.275,12.387.233,23.068,3.314,31.775,10.016,8.609,6.689,14.481,16.735,15.1,30.4.79,19.321-6.832,33.783-17.8,42.866-11.136,9.156-24.4,13.031-39.054,13.311C1099.259,609.629,1090.7,607.1,1084.957,600.819Zm50.192-19.1c4.137-5.841,6.911-14.932,6.588-27.159-.2-7.058-2.13-12.43-5.226-16.173a15.188,15.188,0,0,0-12.023-5.649c-13.215-.253-17.314,11.54-18.334,36.585-.354,6.979.43,12.23,2.639,15.869s5.63,5.34,10.486,5.29C1125.555,590.391,1130.961,587.585,1135.149,581.718Z" transform="translate(-743.512 -488.03)"/>
        <path id="Path_912" data-name="Path 912" d="M1146.872,598.207c.6-2.08,1.057-3.735,1.445-4.921,11.485-34.895,5.948-77.453-18.19-93.607-1.283-.885-1.735-1.447-1.291-1.787s1.974-.494,4.617-.491l7.04.014c4.584.014,8.313.662,10.948,2.252,25.326,17.02,32.167,57.473,20.991,91.724-.764,2.349-.958,4.011-.491,5.021s1.505,1.486,3.135,1.44a8.662,8.662,0,0,0,2.821-.586,7.822,7.822,0,0,1,1.891-.56c.5-.014.782.12.844.4a3.7,3.7,0,0,1-.3,1.6,42.006,42.006,0,0,1-4.934,9.657,16.511,16.511,0,0,1-7.919,6.135,28.974,28.974,0,0,1-9.793,2.2C1145.213,617.01,1142.776,611.919,1146.872,598.207Z" transform="translate(-713.525 -497.048)"/>
        <path id="Path_913" data-name="Path 913" d="M1174.367,595.555c.644-2.015,1.128-3.614,1.521-4.76,6.988-20.307,7.164-42.878.646-61.589-1.228-3.381.874-4.859,6.347-4.606q1.909.09,3.785.182a14.449,14.449,0,0,1,6.491,1.671,6.276,6.276,0,0,1,3.2,3.506c6.062,18.068,6.2,39.287,0,58.842-.711,2.252-.939,3.848-.586,4.813s1.2,1.415,2.553,1.355a6.5,6.5,0,0,0,2.355-.589,6.053,6.053,0,0,1,1.577-.554c.408-.019.636.108.68.372a4.157,4.157,0,0,1-.293,1.537,44.448,44.448,0,0,1-4.441,9.392,15.6,15.6,0,0,1-7.029,6.114,23.6,23.6,0,0,1-8.675,2.292C1171.38,613.988,1169.888,608.854,1174.367,595.555Zm-6.037-82.947a60.065,60.065,0,0,0-8.061-9.554c-2.517-2.343-.288-3.292,6.906-3.177,6.982.136,11.719,1.318,14.033,3.808a68.043,68.043,0,0,1,7.5,9.861c1.8,2.906-.6,4.281-7.3,3.944C1174.644,517.174,1170.279,515.47,1168.33,512.608Z" transform="translate(-695.69 -495.61)"/>
        <path id="Path_914" data-name="Path 914" d="M1194.047,593.27c-2.118-5.681-1.328-14.472-.074-26.541,1.57-15.7,1.654-28.622,3.688-37.677,1.82-9.1,7.738-12.773,17.275-11.953,6.9.627,12.113,4.044,15.044,10.154,2.973,6.121,3.656,14.366,3.682,24.9-.065,14.809-.695,26.316-4.674,34.766-3.9,8.433-11.219,13.03-20.287,13.759C1201.069,601.274,1196.042,598.955,1194.047,593.27Zm28.432-18.175c1.869-4.976,2.966-12.314,2.82-22.093-.1-5.655-.866-10.034-2.2-13.19s-3.177-4.826-5.426-4.987c-6.507-.514-6.846,9.475-7.981,30.385-.448,5.861-.5,10.336.309,13.419.788,3.085,2.416,4.489,4.828,4.305C1217.944,582.69,1220.6,580.068,1222.479,575.095Z" transform="translate(-676.189 -485.633)"/>
      </g>
      <g id="Group_176" data-name="Group 176">
        <path id="Path_915" data-name="Path 915" d="M908.1,524.147c1.708,5.693,1.041,14.443.275,26.279-.671,10.8-.7,20.4-1.219,28.285-.5,7.911-1.447,13.587-3.883,17.381-2.384,3.786-6.151,5.377-11.078,4.991-3.97-.323-8.349-2.58-12.249-6.847a239.141,239.141,0,0,0,6.387,29.024c.9,2.836-1.581,4.223-7.495,4.242h-4.1a12.121,12.121,0,0,1-6.282-1.306,3.742,3.742,0,0,1-2.07-3.235c2.472-25.776,1.106-51.485,2.825-78.178.245-3.894.473-7.431.636-10.606q.1-2.6.231-5.192c0-.685.041-1.719.136-3.1a5.337,5.337,0,0,1,2.8-4.147,16.147,16.147,0,0,1,7.225-2.24c1.958-.185,2.126,2.67.956,8.769A25.866,25.866,0,0,1,888.214,520a16.463,16.463,0,0,1,8.66-3.544C902.768,516.029,906.483,518.445,908.1,524.147Zm-17.333,51.625c1.157-5.263,1.144-13.215,1.547-23.638.622-11.531-.766-16.953-5.931-16.623-2.574.166-5.424,3.514-7.745,9.946a172.232,172.232,0,0,0-.472,33.75c1.762,2.474,3.747,3.8,5.806,3.967C887.426,583.443,889.671,581.056,890.768,575.772Z" transform="translate(-866.386 -485.97)" fill="#8cc63f"/>
        <path id="Path_916" data-name="Path 916" d="M914.832,596.477c-7.938-6.336-13.555-15.486-14.926-27.824-1.679-16.053,3.205-29.363,11.784-39.258,8.707-9.916,21.126-14.682,35.6-15.236,10.8-.358,17.753,2.233,21.634,8.58,3.948,6.325,4.615,16.241,3.968,29.858-.788,19.26-1.277,33.559-5.557,42.16-4.15,8.685-11.67,12-24.356,11.573C932.5,605.9,922.836,602.809,914.832,596.477Zm31.173-16.495c1.615-5.521,1.6-14.242,2.009-25.983.262-6.779-.074-11.931-1.641-15.461-1.547-3.533-4.237-5.185-8.275-5.089-10.3.236-19.984,11.414-18.237,34.274.636,6.412,2.749,11.306,5.747,14.8a14.284,14.284,0,0,0,10.568,5.383C941.372,588.054,944.449,585.53,946.005,579.982Z" transform="translate(-847.042 -487.301)" fill="#8cc63f"/>
        <path id="Path_917" data-name="Path 917" d="M963.839,606.473c-2.156-1.035-3.517-2.369-4.017-4.038-5.407-16.855-5.731-38.529-1.409-58.721,1.309-6.25,2.65-11.395,3.685-15.488.446-1.754.817-3.273,1.1-4.576a27.371,27.371,0,0,1,.772-2.938c.829-2.1,2.89-3.549,6.1-4.407s8.066-1.342,14.66-1.461c4.074-.039,5.041,3.083,3.783,10.363a49.706,49.706,0,0,1,11.428-9.1,25.735,25.735,0,0,1,12.631-3.4c5.568-.052,7.67,2.2,6.6,7.343a37.1,37.1,0,0,1-4.481,10.377c-2.385,4.145-4.19,6.309-5.571,6.312a8.53,8.53,0,0,1-2.71-.82,11.947,11.947,0,0,0-4.736-.8,18.383,18.383,0,0,0-8.835,2.585,28.817,28.817,0,0,0-8.308,7.132c-3.723,20.2-3.672,41.807.662,58.425.98,3.545-1.823,5.082-8.566,4.956l-4.7-.1A19.72,19.72,0,0,1,963.839,606.473Z" transform="translate(-814.484 -488.128)" fill="#8cc63f"/>
        <path id="Path_918" data-name="Path 918" d="M1010.029,611.419c-4.967-3.134-8.345-8.245-9.421-16.048a44.063,44.063,0,0,1-.249-5.111,256.818,256.818,0,0,1,5.063-50.325l-4.365.027c-3.408.03-4.9-2.1-4.3-6.17a16.346,16.346,0,0,1,.63-2.84q.43-1.5.882-2.957a14.76,14.76,0,0,1,3.417-6.431,6.887,6.887,0,0,1,4.859-1.877l4.535-.043a102.688,102.688,0,0,1,6.861-12.9,8.027,8.027,0,0,1,4.335-3.246,22.819,22.819,0,0,1,7.108-.969q1.828-.012,3.663-.021c6.3-.009,8.962,1.246,8.018,4.452-1.16,3.647-2.263,7.862-3.294,12.495q4.228-.019,8.466-.035c1.721-.006,2.916.408,3.6,1.261s.965,2.254.855,4.272a16.65,16.65,0,0,1-.329,2.729q-.263,1.467-.522,2.971a16.6,16.6,0,0,1-2.4,6.882,5.533,5.533,0,0,1-4.731,2.241q-4.456.009-8.9.024a445.309,445.309,0,0,0-5.2,50.23c-.2,4.715,1.986,6.949,6.426,6.976a16.366,16.366,0,0,0,4.641-.522,11.822,11.822,0,0,1,2.17-.533,1.47,1.47,0,0,1,1.269.454,3.625,3.625,0,0,1,.381,1.7,52.777,52.777,0,0,1-.586,10.046c-.37,2.806-2.078,4.771-5.09,6.045a24.579,24.579,0,0,1-9.842,1.847C1020.961,615.987,1015.023,614.545,1010.029,611.419Z" transform="translate(-790.481 -494.069)" fill="#8cc63f"/>
        <path id="Path_919" data-name="Path 919" d="M1040.969,617.087c-1.782-.9-2.707-2.018-2.748-3.383,1.812-19.763,4.611-47.334,7.162-70.848q-1.944,0-3.889,0c-3.5.011-5.225-2.148-5.138-6.251a16.609,16.609,0,0,1,.252-2.859q.223-1.5.449-2.972c.453-3.106,1.23-5.2,2.313-6.442a5.732,5.732,0,0,1,4.57-1.841h3.88c.405-3.949.788-7.593,1.138-10.834.708-6.664,3.329-10.114,7.351-12.077,4.052-1.925,9.139-2.363,16.054-2.4,9.3.041,14.918.532,16.593,2.732.554.78.695,1.98.234,3.921-.473,1.961-1.486,3.148-2.832,3.123a12.769,12.769,0,0,1-2.276-.293,18.491,18.491,0,0,0-3.443-.294c-2.127-.01-3.607.356-4.489,1.152s-1.26,2.062-1.149,3.951c.081,3.308.055,7.037-.062,11.088q4.231.019,8.452.043a5.29,5.29,0,0,1,3.854,1.295,7.21,7.21,0,0,1,1.687,4.277,14.849,14.849,0,0,1,.138,2.721q-.022,1.465-.064,2.963c-.073,3.061-.59,5.385-1.51,6.854a4.869,4.869,0,0,1-4.476,2.211q-4.44-.017-8.9-.027c-1.488,23.413-4.755,50.87-8.593,70.633-.633,3.351-4.563,4.87-11.781,4.892l-5.065,0A17.572,17.572,0,0,1,1040.969,617.087Z" transform="translate(-767.327 -497.178)" fill="#8cc63f"/>
        <path id="Path_920" data-name="Path 920" d="M1084.957,600.819c-5.74-6.271-8.21-16.111-7.666-30.054.641-18.169,3.873-33.288,10.233-43.606,6.342-10.39,17.185-14.491,34.051-14.275,12.387.233,23.068,3.314,31.775,10.016,8.609,6.689,14.481,16.735,15.1,30.4.79,19.321-6.832,33.783-17.8,42.866-11.136,9.156-24.4,13.031-39.054,13.311C1099.259,609.629,1090.7,607.1,1084.957,600.819Zm50.192-19.1c4.137-5.841,6.911-14.932,6.588-27.159-.2-7.058-2.13-12.43-5.226-16.173a15.188,15.188,0,0,0-12.023-5.649c-13.215-.253-17.314,11.54-18.334,36.585-.354,6.979.43,12.23,2.639,15.869s5.63,5.34,10.486,5.29C1125.555,590.391,1130.961,587.585,1135.149,581.718Z" transform="translate(-743.512 -488.03)" fill="#8cc63f"/>
        <path id="Path_921" data-name="Path 921" d="M1146.872,598.207c.6-2.08,1.057-3.735,1.445-4.921,11.485-34.895,5.948-77.453-18.19-93.607-1.283-.885-1.735-1.447-1.291-1.787s1.974-.494,4.617-.491l7.04.014c4.584.014,8.313.662,10.948,2.252,25.326,17.02,32.167,57.473,20.991,91.724-.764,2.349-.958,4.011-.491,5.021s1.505,1.486,3.135,1.44a8.662,8.662,0,0,0,2.821-.586,7.822,7.822,0,0,1,1.891-.56c.5-.014.782.12.844.4a3.7,3.7,0,0,1-.3,1.6,42.006,42.006,0,0,1-4.934,9.657,16.511,16.511,0,0,1-7.919,6.135,28.974,28.974,0,0,1-9.793,2.2C1145.213,617.01,1142.776,611.919,1146.872,598.207Z" transform="translate(-713.525 -497.048)" fill="#8cc63f"/>
        <path id="Path_922" data-name="Path 922" d="M1174.367,595.555c.644-2.015,1.128-3.614,1.521-4.76,6.988-20.307,7.164-42.878.646-61.589-1.228-3.381.874-4.859,6.347-4.606q1.909.09,3.785.182a14.449,14.449,0,0,1,6.491,1.671,6.276,6.276,0,0,1,3.2,3.506c6.062,18.068,6.2,39.287,0,58.842-.711,2.252-.939,3.848-.586,4.813s1.2,1.415,2.553,1.355a6.5,6.5,0,0,0,2.355-.589,6.053,6.053,0,0,1,1.577-.554c.408-.019.636.108.68.372a4.157,4.157,0,0,1-.293,1.537,44.448,44.448,0,0,1-4.441,9.392,15.6,15.6,0,0,1-7.029,6.114,23.6,23.6,0,0,1-8.675,2.292C1171.38,613.988,1169.888,608.854,1174.367,595.555Zm-6.037-82.947a60.065,60.065,0,0,0-8.061-9.554c-2.517-2.343-.288-3.292,6.906-3.177,6.982.136,11.719,1.318,14.033,3.808a68.043,68.043,0,0,1,7.5,9.861c1.8,2.906-.6,4.281-7.3,3.944C1174.644,517.174,1170.279,515.47,1168.33,512.608Z" transform="translate(-695.69 -495.61)" fill="#8cc63f"/>
        <path id="Path_923" data-name="Path 923" d="M1194.047,593.27c-2.118-5.681-1.328-14.472-.074-26.541,1.57-15.7,1.654-28.622,3.688-37.677,1.82-9.1,7.738-12.773,17.275-11.953,6.9.627,12.113,4.044,15.044,10.154,2.973,6.121,3.656,14.366,3.682,24.9-.065,14.809-.695,26.316-4.674,34.766-3.9,8.433-11.219,13.03-20.287,13.759C1201.069,601.274,1196.042,598.955,1194.047,593.27Zm28.432-18.175c1.869-4.976,2.966-12.314,2.82-22.093-.1-5.655-.866-10.034-2.2-13.19s-3.177-4.826-5.426-4.987c-6.507-.514-6.846,9.475-7.981,30.385-.448,5.861-.5,10.336.309,13.419.788,3.085,2.416,4.489,4.828,4.305C1217.944,582.69,1220.6,580.068,1222.479,575.095Z" transform="translate(-676.189 -485.633)" fill="#8cc63f"/>
      </g>
      <g id="Group_177" data-name="Group 177" opacity="0">
        <path id="Path_924" data-name="Path 924" d="M908.1,524.147c1.708,5.693,1.041,14.443.275,26.279-.671,10.8-.7,20.4-1.219,28.285-.5,7.911-1.447,13.587-3.883,17.381-2.384,3.786-6.151,5.377-11.078,4.991-3.97-.323-8.349-2.58-12.249-6.847a239.141,239.141,0,0,0,6.387,29.024c.9,2.836-1.581,4.223-7.495,4.242h-4.1a12.121,12.121,0,0,1-6.282-1.306,3.742,3.742,0,0,1-2.07-3.235c2.472-25.776,1.106-51.485,2.825-78.178.245-3.894.473-7.431.636-10.606q.1-2.6.231-5.192c0-.685.041-1.719.136-3.1a5.337,5.337,0,0,1,2.8-4.147,16.147,16.147,0,0,1,7.225-2.24c1.958-.185,2.126,2.67.956,8.769A25.866,25.866,0,0,1,888.214,520a16.463,16.463,0,0,1,8.66-3.544C902.768,516.029,906.483,518.445,908.1,524.147Zm-17.333,51.625c1.157-5.263,1.144-13.215,1.547-23.638.622-11.531-.766-16.953-5.931-16.623-2.574.166-5.424,3.514-7.745,9.946a172.232,172.232,0,0,0-.472,33.75c1.762,2.474,3.747,3.8,5.806,3.967C887.426,583.443,889.671,581.056,890.768,575.772Z" transform="translate(-866.386 -485.97)" fill="none" stroke="#000" stroke-miterlimit="10" stroke-width="17"/>
        <path id="Path_925" data-name="Path 925" d="M914.832,596.477c-7.938-6.336-13.555-15.486-14.926-27.824-1.679-16.053,3.205-29.363,11.784-39.258,8.707-9.916,21.126-14.682,35.6-15.236,10.8-.358,17.753,2.233,21.634,8.58,3.948,6.325,4.615,16.241,3.968,29.858-.788,19.26-1.277,33.559-5.557,42.16-4.15,8.685-11.67,12-24.356,11.573C932.5,605.9,922.836,602.809,914.832,596.477Zm31.173-16.495c1.615-5.521,1.6-14.242,2.009-25.983.262-6.779-.074-11.931-1.641-15.461-1.547-3.533-4.237-5.185-8.275-5.089-10.3.236-19.984,11.414-18.237,34.274.636,6.412,2.749,11.306,5.747,14.8a14.284,14.284,0,0,0,10.568,5.383C941.372,588.054,944.449,585.53,946.005,579.982Z" transform="translate(-847.042 -487.301)" fill="none" stroke="#000" stroke-miterlimit="10" stroke-width="17"/>
        <path id="Path_926" data-name="Path 926" d="M963.839,606.473c-2.156-1.035-3.517-2.369-4.017-4.038-5.407-16.855-5.731-38.529-1.409-58.721,1.309-6.25,2.65-11.395,3.685-15.488.446-1.754.817-3.273,1.1-4.576a27.371,27.371,0,0,1,.772-2.938c.829-2.1,2.89-3.549,6.1-4.407s8.066-1.342,14.66-1.461c4.074-.039,5.041,3.083,3.783,10.363a49.706,49.706,0,0,1,11.428-9.1,25.735,25.735,0,0,1,12.631-3.4c5.568-.052,7.67,2.2,6.6,7.343a37.1,37.1,0,0,1-4.481,10.377c-2.385,4.145-4.19,6.309-5.571,6.312a8.53,8.53,0,0,1-2.71-.82,11.947,11.947,0,0,0-4.736-.8,18.383,18.383,0,0,0-8.835,2.585,28.817,28.817,0,0,0-8.308,7.132c-3.723,20.2-3.672,41.807.662,58.425.98,3.545-1.823,5.082-8.566,4.956l-4.7-.1A19.72,19.72,0,0,1,963.839,606.473Z" transform="translate(-814.484 -488.128)" fill="none" stroke="#000" stroke-miterlimit="10" stroke-width="17"/>
        <path id="Path_927" data-name="Path 927" d="M1010.029,611.419c-4.967-3.134-8.345-8.245-9.421-16.048a44.063,44.063,0,0,1-.249-5.111,256.818,256.818,0,0,1,5.063-50.325l-4.365.027c-3.408.03-4.9-2.1-4.3-6.17a16.346,16.346,0,0,1,.63-2.84q.43-1.5.882-2.957a14.76,14.76,0,0,1,3.417-6.431,6.887,6.887,0,0,1,4.859-1.877l4.535-.043a102.688,102.688,0,0,1,6.861-12.9,8.027,8.027,0,0,1,4.335-3.246,22.819,22.819,0,0,1,7.108-.969q1.828-.012,3.663-.021c6.3-.009,8.962,1.246,8.018,4.452-1.16,3.647-2.263,7.862-3.294,12.495q4.228-.019,8.466-.035c1.721-.006,2.916.408,3.6,1.261s.965,2.254.855,4.272a16.65,16.65,0,0,1-.329,2.729q-.263,1.467-.522,2.971a16.6,16.6,0,0,1-2.4,6.882,5.533,5.533,0,0,1-4.731,2.241q-4.456.009-8.9.024a445.309,445.309,0,0,0-5.2,50.23c-.2,4.715,1.986,6.949,6.426,6.976a16.366,16.366,0,0,0,4.641-.522,11.822,11.822,0,0,1,2.17-.533,1.47,1.47,0,0,1,1.269.454,3.625,3.625,0,0,1,.381,1.7,52.777,52.777,0,0,1-.586,10.046c-.37,2.806-2.078,4.771-5.09,6.045a24.579,24.579,0,0,1-9.842,1.847C1020.961,615.987,1015.023,614.545,1010.029,611.419Z" transform="translate(-790.481 -494.069)" fill="none" stroke="#000" stroke-miterlimit="10" stroke-width="17"/>
        <path id="Path_928" data-name="Path 928" d="M1040.969,617.087c-1.782-.9-2.707-2.018-2.748-3.383,1.812-19.763,4.611-47.334,7.162-70.848q-1.944,0-3.889,0c-3.5.011-5.225-2.148-5.138-6.251a16.609,16.609,0,0,1,.252-2.859q.223-1.5.449-2.972c.453-3.106,1.23-5.2,2.313-6.442a5.732,5.732,0,0,1,4.57-1.841h3.88c.405-3.949.788-7.593,1.138-10.834.708-6.664,3.329-10.114,7.351-12.077,4.052-1.925,9.139-2.363,16.054-2.4,9.3.041,14.918.532,16.593,2.732.554.78.695,1.98.234,3.921-.473,1.961-1.486,3.148-2.832,3.123a12.769,12.769,0,0,1-2.276-.293,18.491,18.491,0,0,0-3.443-.294c-2.127-.01-3.607.356-4.489,1.152s-1.26,2.062-1.149,3.951c.081,3.308.055,7.037-.062,11.088q4.231.019,8.452.043a5.29,5.29,0,0,1,3.854,1.295,7.21,7.21,0,0,1,1.687,4.277,14.849,14.849,0,0,1,.138,2.721q-.022,1.465-.064,2.963c-.073,3.061-.59,5.385-1.51,6.854a4.869,4.869,0,0,1-4.476,2.211q-4.44-.017-8.9-.027c-1.488,23.413-4.755,50.87-8.593,70.633-.633,3.351-4.563,4.87-11.781,4.892l-5.065,0A17.572,17.572,0,0,1,1040.969,617.087Z" transform="translate(-767.327 -497.178)" fill="none" stroke="#000" stroke-miterlimit="10" stroke-width="17"/>
        <path id="Path_929" data-name="Path 929" d="M1084.957,600.819c-5.74-6.271-8.21-16.111-7.666-30.054.641-18.169,3.873-33.288,10.233-43.606,6.342-10.39,17.185-14.491,34.051-14.275,12.387.233,23.068,3.314,31.775,10.016,8.609,6.689,14.481,16.735,15.1,30.4.79,19.321-6.832,33.783-17.8,42.866-11.136,9.156-24.4,13.031-39.054,13.311C1099.259,609.629,1090.7,607.1,1084.957,600.819Zm50.192-19.1c4.137-5.841,6.911-14.932,6.588-27.159-.2-7.058-2.13-12.43-5.226-16.173a15.188,15.188,0,0,0-12.023-5.649c-13.215-.253-17.314,11.54-18.334,36.585-.354,6.979.43,12.23,2.639,15.869s5.63,5.34,10.486,5.29C1125.555,590.391,1130.961,587.585,1135.149,581.718Z" transform="translate(-743.512 -488.03)" fill="none" stroke="#000" stroke-miterlimit="10" stroke-width="17"/>
        <path id="Path_930" data-name="Path 930" d="M1146.872,598.207c.6-2.08,1.057-3.735,1.445-4.921,11.485-34.895,5.948-77.453-18.19-93.607-1.283-.885-1.735-1.447-1.291-1.787s1.974-.494,4.617-.491l7.04.014c4.584.014,8.313.662,10.948,2.252,25.326,17.02,32.167,57.473,20.991,91.724-.764,2.349-.958,4.011-.491,5.021s1.505,1.486,3.135,1.44a8.662,8.662,0,0,0,2.821-.586,7.822,7.822,0,0,1,1.891-.56c.5-.014.782.12.844.4a3.7,3.7,0,0,1-.3,1.6,42.006,42.006,0,0,1-4.934,9.657,16.511,16.511,0,0,1-7.919,6.135,28.974,28.974,0,0,1-9.793,2.2C1145.213,617.01,1142.776,611.919,1146.872,598.207Z" transform="translate(-713.525 -497.048)" fill="none" stroke="#000" stroke-miterlimit="10" stroke-width="17"/>
        <path id="Path_931" data-name="Path 931" d="M1174.367,595.555c.644-2.015,1.128-3.614,1.521-4.76,6.988-20.307,7.164-42.878.646-61.589-1.228-3.381.874-4.859,6.347-4.606q1.909.09,3.785.182a14.449,14.449,0,0,1,6.491,1.671,6.276,6.276,0,0,1,3.2,3.506c6.062,18.068,6.2,39.287,0,58.842-.711,2.252-.939,3.848-.586,4.813s1.2,1.415,2.553,1.355a6.5,6.5,0,0,0,2.355-.589,6.053,6.053,0,0,1,1.577-.554c.408-.019.636.108.68.372a4.157,4.157,0,0,1-.293,1.537,44.448,44.448,0,0,1-4.441,9.392,15.6,15.6,0,0,1-7.029,6.114,23.6,23.6,0,0,1-8.675,2.292C1171.38,613.988,1169.888,608.854,1174.367,595.555Zm-6.037-82.947a60.065,60.065,0,0,0-8.061-9.554c-2.517-2.343-.288-3.292,6.906-3.177,6.982.136,11.719,1.318,14.033,3.808a68.043,68.043,0,0,1,7.5,9.861c1.8,2.906-.6,4.281-7.3,3.944C1174.644,517.174,1170.279,515.47,1168.33,512.608Z" transform="translate(-695.69 -495.61)" fill="none" stroke="#000" stroke-miterlimit="10" stroke-width="17"/>
        <path id="Path_932" data-name="Path 932" d="M1194.047,593.27c-2.118-5.681-1.328-14.472-.074-26.541,1.57-15.7,1.654-28.622,3.688-37.677,1.82-9.1,7.738-12.773,17.275-11.953,6.9.627,12.113,4.044,15.044,10.154,2.973,6.121,3.656,14.366,3.682,24.9-.065,14.809-.695,26.316-4.674,34.766-3.9,8.433-11.219,13.03-20.287,13.759C1201.069,601.274,1196.042,598.955,1194.047,593.27Zm28.432-18.175c1.869-4.976,2.966-12.314,2.82-22.093-.1-5.655-.866-10.034-2.2-13.19s-3.177-4.826-5.426-4.987c-6.507-.514-6.846,9.475-7.981,30.385-.448,5.861-.5,10.336.309,13.419.788,3.085,2.416,4.489,4.828,4.305C1217.944,582.69,1220.6,580.068,1222.479,575.095Z" transform="translate(-676.189 -485.633)" fill="none" stroke="#000" stroke-miterlimit="10" stroke-width="17"/>
      </g>
      <g id="Group_178" data-name="Group 178">
        <path id="Path_933" data-name="Path 933" d="M908.1,524.147c1.708,5.693,1.041,14.443.275,26.279-.671,10.8-.7,20.4-1.219,28.285-.5,7.911-1.447,13.587-3.883,17.381-2.384,3.786-6.151,5.377-11.078,4.991-3.97-.323-8.349-2.58-12.249-6.847a239.141,239.141,0,0,0,6.387,29.024c.9,2.836-1.581,4.223-7.495,4.242h-4.1a12.121,12.121,0,0,1-6.282-1.306,3.742,3.742,0,0,1-2.07-3.235c2.472-25.776,1.106-51.485,2.825-78.178.245-3.894.473-7.431.636-10.606q.1-2.6.231-5.192c0-.685.041-1.719.136-3.1a5.337,5.337,0,0,1,2.8-4.147,16.147,16.147,0,0,1,7.225-2.24c1.958-.185,2.126,2.67.956,8.769A25.866,25.866,0,0,1,888.214,520a16.463,16.463,0,0,1,8.66-3.544C902.768,516.029,906.483,518.445,908.1,524.147Zm-17.333,51.625c1.157-5.263,1.144-13.215,1.547-23.638.622-11.531-.766-16.953-5.931-16.623-2.574.166-5.424,3.514-7.745,9.946a172.232,172.232,0,0,0-.472,33.75c1.762,2.474,3.747,3.8,5.806,3.967C887.426,583.443,889.671,581.056,890.768,575.772Z" transform="translate(-866.386 -485.97)" fill="none" stroke="#000" stroke-miterlimit="10" stroke-width="7"/>
        <path id="Path_934" data-name="Path 934" d="M914.832,596.477c-7.938-6.336-13.555-15.486-14.926-27.824-1.679-16.053,3.205-29.363,11.784-39.258,8.707-9.916,21.126-14.682,35.6-15.236,10.8-.358,17.753,2.233,21.634,8.58,3.948,6.325,4.615,16.241,3.968,29.858-.788,19.26-1.277,33.559-5.557,42.16-4.15,8.685-11.67,12-24.356,11.573C932.5,605.9,922.836,602.809,914.832,596.477Zm31.173-16.495c1.615-5.521,1.6-14.242,2.009-25.983.262-6.779-.074-11.931-1.641-15.461-1.547-3.533-4.237-5.185-8.275-5.089-10.3.236-19.984,11.414-18.237,34.274.636,6.412,2.749,11.306,5.747,14.8a14.284,14.284,0,0,0,10.568,5.383C941.372,588.054,944.449,585.53,946.005,579.982Z" transform="translate(-847.042 -487.301)" fill="none" stroke="#000" stroke-miterlimit="10" stroke-width="7"/>
        <path id="Path_935" data-name="Path 935" d="M963.839,606.473c-2.156-1.035-3.517-2.369-4.017-4.038-5.407-16.855-5.731-38.529-1.409-58.721,1.309-6.25,2.65-11.395,3.685-15.488.446-1.754.817-3.273,1.1-4.576a27.371,27.371,0,0,1,.772-2.938c.829-2.1,2.89-3.549,6.1-4.407s8.066-1.342,14.66-1.461c4.074-.039,5.041,3.083,3.783,10.363a49.706,49.706,0,0,1,11.428-9.1,25.735,25.735,0,0,1,12.631-3.4c5.568-.052,7.67,2.2,6.6,7.343a37.1,37.1,0,0,1-4.481,10.377c-2.385,4.145-4.19,6.309-5.571,6.312a8.53,8.53,0,0,1-2.71-.82,11.947,11.947,0,0,0-4.736-.8,18.383,18.383,0,0,0-8.835,2.585,28.817,28.817,0,0,0-8.308,7.132c-3.723,20.2-3.672,41.807.662,58.425.98,3.545-1.823,5.082-8.566,4.956l-4.7-.1A19.72,19.72,0,0,1,963.839,606.473Z" transform="translate(-814.484 -488.128)" fill="none" stroke="#000" stroke-miterlimit="10" stroke-width="7"/>
        <path id="Path_936" data-name="Path 936" d="M1010.029,611.419c-4.967-3.134-8.345-8.245-9.421-16.048a44.063,44.063,0,0,1-.249-5.111,256.818,256.818,0,0,1,5.063-50.325l-4.365.027c-3.408.03-4.9-2.1-4.3-6.17a16.346,16.346,0,0,1,.63-2.84q.43-1.5.882-2.957a14.76,14.76,0,0,1,3.417-6.431,6.887,6.887,0,0,1,4.859-1.877l4.535-.043a102.688,102.688,0,0,1,6.861-12.9,8.027,8.027,0,0,1,4.335-3.246,22.819,22.819,0,0,1,7.108-.969q1.828-.012,3.663-.021c6.3-.009,8.962,1.246,8.018,4.452-1.16,3.647-2.263,7.862-3.294,12.495q4.228-.019,8.466-.035c1.721-.006,2.916.408,3.6,1.261s.965,2.254.855,4.272a16.65,16.65,0,0,1-.329,2.729q-.263,1.467-.522,2.971a16.6,16.6,0,0,1-2.4,6.882,5.533,5.533,0,0,1-4.731,2.241q-4.456.009-8.9.024a445.309,445.309,0,0,0-5.2,50.23c-.2,4.715,1.986,6.949,6.426,6.976a16.366,16.366,0,0,0,4.641-.522,11.822,11.822,0,0,1,2.17-.533,1.47,1.47,0,0,1,1.269.454,3.625,3.625,0,0,1,.381,1.7,52.777,52.777,0,0,1-.586,10.046c-.37,2.806-2.078,4.771-5.09,6.045a24.579,24.579,0,0,1-9.842,1.847C1020.961,615.987,1015.023,614.545,1010.029,611.419Z" transform="translate(-790.481 -494.069)" fill="none" stroke="#000" stroke-miterlimit="10" stroke-width="7"/>
        <path id="Path_937" data-name="Path 937" d="M1040.969,617.087c-1.782-.9-2.707-2.018-2.748-3.383,1.812-19.763,4.611-47.334,7.162-70.848q-1.944,0-3.889,0c-3.5.011-5.225-2.148-5.138-6.251a16.609,16.609,0,0,1,.252-2.859q.223-1.5.449-2.972c.453-3.106,1.23-5.2,2.313-6.442a5.732,5.732,0,0,1,4.57-1.841h3.88c.405-3.949.788-7.593,1.138-10.834.708-6.664,3.329-10.114,7.351-12.077,4.052-1.925,9.139-2.363,16.054-2.4,9.3.041,14.918.532,16.593,2.732.554.78.695,1.98.234,3.921-.473,1.961-1.486,3.148-2.832,3.123a12.769,12.769,0,0,1-2.276-.293,18.491,18.491,0,0,0-3.443-.294c-2.127-.01-3.607.356-4.489,1.152s-1.26,2.062-1.149,3.951c.081,3.308.055,7.037-.062,11.088q4.231.019,8.452.043a5.29,5.29,0,0,1,3.854,1.295,7.21,7.21,0,0,1,1.687,4.277,14.849,14.849,0,0,1,.138,2.721q-.022,1.465-.064,2.963c-.073,3.061-.59,5.385-1.51,6.854a4.869,4.869,0,0,1-4.476,2.211q-4.44-.017-8.9-.027c-1.488,23.413-4.755,50.87-8.593,70.633-.633,3.351-4.563,4.87-11.781,4.892l-5.065,0A17.572,17.572,0,0,1,1040.969,617.087Z" transform="translate(-767.327 -497.178)" fill="none" stroke="#000" stroke-miterlimit="10" stroke-width="7"/>
        <path id="Path_938" data-name="Path 938" d="M1084.957,600.819c-5.74-6.271-8.21-16.111-7.666-30.054.641-18.169,3.873-33.288,10.233-43.606,6.342-10.39,17.185-14.491,34.051-14.275,12.387.233,23.068,3.314,31.775,10.016,8.609,6.689,14.481,16.735,15.1,30.4.79,19.321-6.832,33.783-17.8,42.866-11.136,9.156-24.4,13.031-39.054,13.311C1099.259,609.629,1090.7,607.1,1084.957,600.819Zm50.192-19.1c4.137-5.841,6.911-14.932,6.588-27.159-.2-7.058-2.13-12.43-5.226-16.173a15.188,15.188,0,0,0-12.023-5.649c-13.215-.253-17.314,11.54-18.334,36.585-.354,6.979.43,12.23,2.639,15.869s5.63,5.34,10.486,5.29C1125.555,590.391,1130.961,587.585,1135.149,581.718Z" transform="translate(-743.512 -488.03)" fill="none" stroke="#000" stroke-miterlimit="10" stroke-width="7"/>
        <path id="Path_939" data-name="Path 939" d="M1146.872,598.207c.6-2.08,1.057-3.735,1.445-4.921,11.485-34.895,5.948-77.453-18.19-93.607-1.283-.885-1.735-1.447-1.291-1.787s1.974-.494,4.617-.491l7.04.014c4.584.014,8.313.662,10.948,2.252,25.326,17.02,32.167,57.473,20.991,91.724-.764,2.349-.958,4.011-.491,5.021s1.505,1.486,3.135,1.44a8.662,8.662,0,0,0,2.821-.586,7.822,7.822,0,0,1,1.891-.56c.5-.014.782.12.844.4a3.7,3.7,0,0,1-.3,1.6,42.006,42.006,0,0,1-4.934,9.657,16.511,16.511,0,0,1-7.919,6.135,28.974,28.974,0,0,1-9.793,2.2C1145.213,617.01,1142.776,611.919,1146.872,598.207Z" transform="translate(-713.525 -497.048)" fill="none" stroke="#000" stroke-miterlimit="10" stroke-width="7"/>
        <path id="Path_940" data-name="Path 940" d="M1174.367,595.555c.644-2.015,1.128-3.614,1.521-4.76,6.988-20.307,7.164-42.878.646-61.589-1.228-3.381.874-4.859,6.347-4.606q1.909.09,3.785.182a14.449,14.449,0,0,1,6.491,1.671,6.276,6.276,0,0,1,3.2,3.506c6.062,18.068,6.2,39.287,0,58.842-.711,2.252-.939,3.848-.586,4.813s1.2,1.415,2.553,1.355a6.5,6.5,0,0,0,2.355-.589,6.053,6.053,0,0,1,1.577-.554c.408-.019.636.108.68.372a4.157,4.157,0,0,1-.293,1.537,44.448,44.448,0,0,1-4.441,9.392,15.6,15.6,0,0,1-7.029,6.114,23.6,23.6,0,0,1-8.675,2.292C1171.38,613.988,1169.888,608.854,1174.367,595.555Zm-6.037-82.947a60.065,60.065,0,0,0-8.061-9.554c-2.517-2.343-.288-3.292,6.906-3.177,6.982.136,11.719,1.318,14.033,3.808a68.043,68.043,0,0,1,7.5,9.861c1.8,2.906-.6,4.281-7.3,3.944C1174.644,517.174,1170.279,515.47,1168.33,512.608Z" transform="translate(-695.69 -495.61)" fill="none" stroke="#000" stroke-miterlimit="10" stroke-width="7"/>
        <path id="Path_941" data-name="Path 941" d="M1194.047,593.27c-2.118-5.681-1.328-14.472-.074-26.541,1.57-15.7,1.654-28.622,3.688-37.677,1.82-9.1,7.738-12.773,17.275-11.953,6.9.627,12.113,4.044,15.044,10.154,2.973,6.121,3.656,14.366,3.682,24.9-.065,14.809-.695,26.316-4.674,34.766-3.9,8.433-11.219,13.03-20.287,13.759C1201.069,601.274,1196.042,598.955,1194.047,593.27Zm28.432-18.175c1.869-4.976,2.966-12.314,2.82-22.093-.1-5.655-.866-10.034-2.2-13.19s-3.177-4.826-5.426-4.987c-6.507-.514-6.846,9.475-7.981,30.385-.448,5.861-.5,10.336.309,13.419.788,3.085,2.416,4.489,4.828,4.305C1217.944,582.69,1220.6,580.068,1222.479,575.095Z" transform="translate(-676.189 -485.633)" fill="none" stroke="#000" stroke-miterlimit="10" stroke-width="7"/>
      </g>
    </g>
  </g>
</svg>
