      
<svg xmlns="http://www.w3.org/2000/svg" width="680.003" height="250" viewBox="0 0 680.003 250">
 <g id="Group_172" data-name="Group 172" transform="translate(-697.255 -187.887)">
    <g id="Group_135" data-name="Group 135" transform="translate(705.334 190.392)">
      <g id="Group_132" data-name="Group 132">
        <path id="Path_666" data-name="Path 666" d="M790.012,264.5c16,18.669,21.336,42.672,13.335,64.009-8,29.337-45.339,13.335-64.009-2.667,0,10.668,2.667,24-5.334,34.671-10.668-5.334-24-8-32-18.669,10.668-37.338,8-77.344,13.335-114.682,0-8,13.335,0,18.669,2.667s5.334,10.668,5.334,16c18.669-13.335,40.005,2.667,50.674,18.669Zm-18.669,50.674c10.668-13.335,2.667-29.337-2.667-42.672-2.667-8-16-10.668-21.336-8-13.335,5.334-8,26.67-2.667,42.672,0,8,18.669,18.669,26.67,8Z" transform="translate(-702 -134.864)"/>
        <path id="Path_667" data-name="Path 667" d="M762,330.6c-8-26.67-8-56.008-16-82.678,0-2.667,0-8,2.667-8,8,0,18.669-8,26.67,13.335,2.667-10.668,13.335-16,24-13.335,8,5.334,5.334,18.669,2.667,26.67l-2.667-2.667c-34.671,2.667,0,45.339-10.668,66.676-2.667,8-16,8-26.67,0Z" transform="translate(-628.651 -110.279)"/>
        <path id="Path_668" data-name="Path 668" d="M805.191,329.641c-8-2.667-16-5.334-21.336-16-8-21.336-18.669-45.339-2.667-64.009,18.669-18.669,50.673-21.336,72.01-2.667,10.668,10.668,13.335,24,21.336,34.671,5.334,10.668,2.667,21.336-2.667,32-16,18.669-42.672,29.337-66.676,16ZM847.863,300.3c0-16-10.668-34.671-26.67-40.005-5.334-2.667-13.335,0-16,5.334-8,16,2.667,34.671,16,45.339,8,5.334,24,5.334,26.67-10.668Z" transform="translate(-583.827 -117.323)"/>
        <path id="Path_669" data-name="Path 669" d="M857.66,387.833c-2.667,0-2.667-2.667-5.334-2.667-2.667-5.334-2.667-10.668-2.667-16,5.334,0,13.335-5.334,10.668-8-5.334-32-21.336-58.675-40.005-85.345-2.667-5.334-8-13.335-5.334-18.669,5.334-5.334,13.335-13.335,24-10.668,13.335,40.005,50.674,69.343,50.674,112.015,0,16-18.669,24-32,29.337ZM806.987,241.147c-10.668-13.335-2.667-34.671,16-32,8,2.667,8,13.335,8,21.336-2.667,8-16,18.669-24,10.668Z" transform="translate(-534.95 -159.514)"/>
        <path id="Path_670" data-name="Path 670" d="M908.135,239.671c-2.667,13.335-13.335,21.336-24,26.67-5.334,2.667-13.335,2.667-18.669,8,16,16,40.005,2.667,50.674-13.335,5.334,8,13.335,21.336,2.667,32-16,13.335-40.005,21.336-58.675,13.335-29.337-16-45.34-53.341-24-82.678A64.343,64.343,0,0,1,881.465,205c18.669,2.667,29.337,16,26.67,34.671Zm-42.672,13.335c5.334-2.667,10.668-5.334,13.335-10.668,0-5.334,8-10.668-5.334-13.335-18.669-2.667-21.336,16-18.669,29.337,2.667-2.667,8-2.667,10.668-5.334Z" transform="translate(-494.746 -166.039)"/>
        <path id="Path_671" data-name="Path 671" d="M894.163,289.5c-21.336-16-42.673-45.339-26.67-72.01,13.335-26.67,50.674-26.67,74.677-10.668-2.667,5.334-2.667,13.335-10.668,13.335-16-2.667-37.338-8-40.006,13.335,0,10.668,5.334,21.336,10.668,29.337,10.668,10.668,26.67,8,40.005,5.334,5.334-2.667,21.336,10.668,10.668,18.669-18.669,13.335-40.005,10.668-58.675,2.667Z" transform="translate(-435.434 -181.201)"/>
        <path id="Path_672" data-name="Path 672" d="M931.1,301.362c-18.669-18.669-18.669-48.006-21.336-72.01-10.668,2.667-16-10.668-13.335-18.669,13.335,0,8-16,16-18.669,13.335-5.334,32,2.667,26.67,21.336,13.335,0,24,8,18.669,21.336-2.667,5.334-8,2.667-16,0,2.667,18.669-2.667,56.008,21.336,56.008,0,8,2.667,16-2.667,21.336-10.668,5.334-21.336-5.334-29.337-10.668Z" transform="translate(-379.022 -190.392)"/>
        <path id="Path_673" data-name="Path 673" d="M947.446,299.346c-10.668-5.334-16-16-18.669-29.337l2.667-2.667c10.668,5.334,18.669,18.669,32,18.669,2.667,0,5.334-8,0-13.335C944.779,254.007,910.107,232.67,934.11,206c24,0,50.674,10.668,64.009,32,0,2.667-5.334,10.668-10.668,8-8-8-16-16-26.67-16-2.667,0-5.334,8,0,13.335,18.669,13.335,40.005,34.671,32,58.675-5.334,21.336-32,10.668-45.34-2.667Z" transform="translate(-328.695 -164.372)"/>
      </g>
      <g id="Group_133" data-name="Group 133">
        <path id="Path_674" data-name="Path 674" d="M790.012,264.5c16,18.669,21.336,42.672,13.335,64.009-8,29.337-45.339,13.335-64.009-2.667,0,10.668,2.667,24-5.334,34.671-10.668-5.334-24-8-32-18.669,10.668-37.338,8-77.344,13.335-114.682,0-8,13.335,0,18.669,2.667s5.334,10.668,5.334,16c18.669-13.335,40.005,2.667,50.674,18.669Zm-18.669,50.674c10.668-13.335,2.667-29.337-2.667-42.672-2.667-8-16-10.668-21.336-8-13.335,5.334-8,26.67-2.667,42.672,0,8,18.669,18.669,26.67,8Z" transform="translate(-702 -134.864)" fill="#29abe2"/>
        <path id="Path_675" data-name="Path 675" d="M762,330.6c-8-26.67-8-56.008-16-82.678,0-2.667,0-8,2.667-8,8,0,18.669-8,26.67,13.335,2.667-10.668,13.335-16,24-13.335,8,5.334,5.334,18.669,2.667,26.67l-2.667-2.667c-34.671,2.667,0,45.339-10.668,66.676-2.667,8-16,8-26.67,0Z" transform="translate(-628.651 -110.279)" fill="#29abe2"/>
        <path id="Path_676" data-name="Path 676" d="M805.191,329.641c-8-2.667-16-5.334-21.336-16-8-21.336-18.669-45.339-2.667-64.009,18.669-18.669,50.673-21.336,72.01-2.667,10.668,10.668,13.335,24,21.336,34.671,5.334,10.668,2.667,21.336-2.667,32-16,18.669-42.672,29.337-66.676,16ZM847.863,300.3c0-16-10.668-34.671-26.67-40.005-5.334-2.667-13.335,0-16,5.334-8,16,2.667,34.671,16,45.339,8,5.334,24,5.334,26.67-10.668Z" transform="translate(-583.827 -117.323)" fill="#29abe2"/>
        <path id="Path_677" data-name="Path 677" d="M857.66,387.833c-2.667,0-2.667-2.667-5.334-2.667-2.667-5.334-2.667-10.668-2.667-16,5.334,0,13.335-5.334,10.668-8-5.334-32-21.336-58.675-40.005-85.345-2.667-5.334-8-13.335-5.334-18.669,5.334-5.334,13.335-13.335,24-10.668,13.335,40.005,50.674,69.343,50.674,112.015,0,16-18.669,24-32,29.337ZM806.987,241.147c-10.668-13.335-2.667-34.671,16-32,8,2.667,8,13.335,8,21.336-2.667,8-16,18.669-24,10.668Z" transform="translate(-534.95 -159.514)" fill="#29abe2"/>
        <path id="Path_678" data-name="Path 678" d="M908.135,239.671c-2.667,13.335-13.335,21.336-24,26.67-5.334,2.667-13.335,2.667-18.669,8,16,16,40.005,2.667,50.674-13.335,5.334,8,13.335,21.336,2.667,32-16,13.335-40.005,21.336-58.675,13.335-29.337-16-45.34-53.341-24-82.678A64.343,64.343,0,0,1,881.465,205c18.669,2.667,29.337,16,26.67,34.671Zm-42.672,13.335c5.334-2.667,10.668-5.334,13.335-10.668,0-5.334,8-10.668-5.334-13.335-18.669-2.667-21.336,16-18.669,29.337,2.667-2.667,8-2.667,10.668-5.334Z" transform="translate(-494.746 -166.039)" fill="#29abe2"/>
        <path id="Path_679" data-name="Path 679" d="M894.163,289.5c-21.336-16-42.673-45.339-26.67-72.01,13.335-26.67,50.674-26.67,74.677-10.668-2.667,5.334-2.667,13.335-10.668,13.335-16-2.667-37.338-8-40.006,13.335,0,10.668,5.334,21.336,10.668,29.337,10.668,10.668,26.67,8,40.005,5.334,5.334-2.667,21.336,10.668,10.668,18.669-18.669,13.335-40.005,10.668-58.675,2.667Z" transform="translate(-435.434 -181.201)" fill="#29abe2"/>
        <path id="Path_680" data-name="Path 680" d="M931.1,301.362c-18.669-18.669-18.669-48.006-21.336-72.01-10.668,2.667-16-10.668-13.335-18.669,13.335,0,8-16,16-18.669,13.335-5.334,32,2.667,26.67,21.336,13.335,0,24,8,18.669,21.336-2.667,5.334-8,2.667-16,0,2.667,18.669-2.667,56.008,21.336,56.008,0,8,2.667,16-2.667,21.336-10.668,5.334-21.336-5.334-29.337-10.668Z" transform="translate(-379.022 -190.392)" fill="#29abe2"/>
        <path id="Path_681" data-name="Path 681" d="M947.446,299.346c-10.668-5.334-16-16-18.669-29.337l2.667-2.667c10.668,5.334,18.669,18.669,32,18.669,2.667,0,5.334-8,0-13.335C944.779,254.007,910.107,232.67,934.11,206c24,0,50.674,10.668,64.009,32,0,2.667-5.334,10.668-10.668,8-8-8-16-16-26.67-16-2.667,0-5.334,8,0,13.335,18.669,13.335,40.005,34.671,32,58.675-5.334,21.336-32,10.668-45.34-2.667Z" transform="translate(-328.695 -164.372)" fill="#29abe2"/>
      </g>
      <g id="Group_134" data-name="Group 134">
        <path id="Path_682" data-name="Path 682" d="M790.012,264.5c16,18.669,21.336,42.672,13.335,64.009-8,29.337-45.339,13.335-64.009-2.667,0,10.668,2.667,24-5.334,34.671-10.668-5.334-24-8-32-18.669,10.668-37.338,8-77.344,13.335-114.682,0-8,13.335,0,18.669,2.667s5.334,10.668,5.334,16c18.669-13.335,40.005,2.667,50.674,18.669Zm-18.669,50.674c10.668-13.335,2.667-29.337-2.667-42.672-2.667-8-16-10.668-21.336-8-13.335,5.334-8,26.67-2.667,42.672,0,8,18.669,18.669,26.67,8Z" transform="translate(-702 -134.864)" fill="none" stroke="#000" stroke-miterlimit="10" stroke-width="5"/>
        <path id="Path_683" data-name="Path 683" d="M762,330.6c-8-26.67-8-56.008-16-82.678,0-2.667,0-8,2.667-8,8,0,18.669-8,26.67,13.335,2.667-10.668,13.335-16,24-13.335,8,5.334,5.334,18.669,2.667,26.67l-2.667-2.667c-34.671,2.667,0,45.339-10.668,66.676-2.667,8-16,8-26.67,0Z" transform="translate(-628.651 -110.279)" fill="none" stroke="#000" stroke-miterlimit="10" stroke-width="5"/>
        <path id="Path_684" data-name="Path 684" d="M805.191,329.641c-8-2.667-16-5.334-21.336-16-8-21.336-18.669-45.339-2.667-64.009,18.669-18.669,50.673-21.336,72.01-2.667,10.668,10.668,13.335,24,21.336,34.671,5.334,10.668,2.667,21.336-2.667,32-16,18.669-42.672,29.337-66.676,16ZM847.863,300.3c0-16-10.668-34.671-26.67-40.005-5.334-2.667-13.335,0-16,5.334-8,16,2.667,34.671,16,45.339,8,5.334,24,5.334,26.67-10.668Z" transform="translate(-583.827 -117.323)" fill="none" stroke="#000" stroke-miterlimit="10" stroke-width="5"/>
        <path id="Path_685" data-name="Path 685" d="M857.66,387.833c-2.667,0-2.667-2.667-5.334-2.667-2.667-5.334-2.667-10.668-2.667-16,5.334,0,13.335-5.334,10.668-8-5.334-32-21.336-58.675-40.005-85.345-2.667-5.334-8-13.335-5.334-18.669,5.334-5.334,13.335-13.335,24-10.668,13.335,40.005,50.674,69.343,50.674,112.015,0,16-18.669,24-32,29.337ZM806.987,241.147c-10.668-13.335-2.667-34.671,16-32,8,2.667,8,13.335,8,21.336-2.667,8-16,18.669-24,10.668Z" transform="translate(-534.95 -159.514)" fill="none" stroke="#000" stroke-miterlimit="10" stroke-width="5"/>
        <path id="Path_686" data-name="Path 686" d="M908.135,239.671c-2.667,13.335-13.335,21.336-24,26.67-5.334,2.667-13.335,2.667-18.669,8,16,16,40.005,2.667,50.674-13.335,5.334,8,13.335,21.336,2.667,32-16,13.335-40.005,21.336-58.675,13.335-29.337-16-45.34-53.341-24-82.678A64.343,64.343,0,0,1,881.465,205c18.669,2.667,29.337,16,26.67,34.671Zm-42.672,13.335c5.334-2.667,10.668-5.334,13.335-10.668,0-5.334,8-10.668-5.334-13.335-18.669-2.667-21.336,16-18.669,29.337,2.667-2.667,8-2.667,10.668-5.334Z" transform="translate(-494.746 -166.039)" fill="none" stroke="#000" stroke-miterlimit="10" stroke-width="5"/>
        <path id="Path_687" data-name="Path 687" d="M894.163,289.5c-21.336-16-42.673-45.339-26.67-72.01,13.335-26.67,50.674-26.67,74.677-10.668-2.667,5.334-2.667,13.335-10.668,13.335-16-2.667-37.338-8-40.006,13.335,0,10.668,5.334,21.336,10.668,29.337,10.668,10.668,26.67,8,40.005,5.334,5.334-2.667,21.336,10.668,10.668,18.669-18.669,13.335-40.005,10.668-58.675,2.667Z" transform="translate(-435.434 -181.201)" fill="none" stroke="#000" stroke-miterlimit="10" stroke-width="5"/>
        <path id="Path_688" data-name="Path 688" d="M931.1,301.362c-18.669-18.669-18.669-48.006-21.336-72.01-10.668,2.667-16-10.668-13.335-18.669,13.335,0,8-16,16-18.669,13.335-5.334,32,2.667,26.67,21.336,13.335,0,24,8,18.669,21.336-2.667,5.334-8,2.667-16,0,2.667,18.669-2.667,56.008,21.336,56.008,0,8,2.667,16-2.667,21.336-10.668,5.334-21.336-5.334-29.337-10.668Z" transform="translate(-379.022 -190.392)" fill="none" stroke="#000" stroke-miterlimit="10" stroke-width="5"/>
        <path id="Path_689" data-name="Path 689" d="M947.446,299.346c-10.668-5.334-16-16-18.669-29.337l2.667-2.667c10.668,5.334,18.669,18.669,32,18.669,2.667,0,5.334-8,0-13.335C944.779,254.007,910.107,232.67,934.11,206c24,0,50.674,10.668,64.009,32,0,2.667-5.334,10.668-10.668,8-8-8-16-16-26.67-16-2.667,0-5.334,8,0,13.335,18.669,13.335,40.005,34.671,32,58.675-5.334,21.336-32,10.668-45.34-2.667Z" transform="translate(-328.695 -164.372)" fill="none" stroke="#000" stroke-miterlimit="10" stroke-width="5"/>
      </g>
    </g>
   </g>
</svg>